<svg width="256" height="144" viewBox="0 0 256 144" fill="none" xmlns="http://www.w3.org/2000/svg">
<path d="M193.587 56.7436C192.062 56.1421 190.472 57.3589 190.036 59.4601C189.6 61.5613 190.483 63.752 192.007 64.3527C205.115 69.5182 213.257 77.0105 213.257 83.9057C213.257 88.9518 208.803 94.4905 201.038 99.1017C192.494 104.175 180.374 107.886 166.897 109.558L155.134 109.339C155.12 109.339 155.107 109.338 155.094 109.338C153.526 109.338 152.245 111.075 152.223 113.242C152.202 115.427 153.47 117.223 155.056 117.252L166.967 117.474C166.98 117.474 166.993 117.475 167.006 117.475C167.091 117.475 167.176 117.47 167.261 117.459C181.388 115.724 194.19 111.785 203.31 106.37C216.278 98.6692 219 89.9035 219 83.9057C219 72.8485 209.975 63.202 193.587 56.7436Z" fill="black"/>
<path d="M90.929 50.5886C89.3473 50.5886 88.0647 51.8709 88.0647 53.4528C88.0647 55.0347 89.3473 56.317 90.929 56.317H102.707V68.1557H90.929C89.3473 68.1557 88.0647 69.438 88.0647 71.0199C88.0647 72.6018 89.3473 73.8841 90.929 73.8841H105.571C107.153 73.8841 108.435 72.6018 108.435 71.0199V35.8858C108.435 34.3039 107.153 33.0216 105.571 33.0216H90.929C89.3473 33.0216 88.0647 34.3039 88.0647 35.8858C88.0647 37.4677 89.3473 38.75 90.929 38.75H102.707V50.5886H90.929Z" fill="black"/>
<path d="M117.11 73.8844H134.677C136.259 73.8844 137.541 72.6021 137.541 71.0202V53.4531C137.541 51.8712 136.259 50.5889 134.677 50.5889H119.974V38.75H131.752C133.334 38.75 134.616 37.4677 134.616 35.8858C134.616 34.3039 133.334 33.0216 131.752 33.0216H117.11C115.528 33.0216 114.246 34.3039 114.246 35.8858V71.0202C114.246 72.6021 115.528 73.8844 117.11 73.8844ZM119.974 56.317H131.813V68.1557H119.974V56.317Z" fill="black"/>
<path d="M146.57 73.8844H164.138C165.719 73.8844 167.002 72.6021 167.002 71.0202V35.8858C167.002 34.3039 165.719 33.0216 164.138 33.0216H146.57C144.989 33.0216 143.706 34.3039 143.706 35.8858V71.0202C143.706 72.6021 144.989 73.8844 146.57 73.8844ZM149.434 38.75H161.273V68.1559H149.434V38.75Z" fill="black"/>
<path d="M89.3964 91.1396C88.3743 89.5539 86.5662 89.3557 85.3582 90.6972C84.1498 92.0388 83.9991 94.4117 85.0209 95.9977L91.4297 105.942C77.906 104.588 65.6577 101.335 56.652 96.671C47.805 92.0885 42.7309 86.4852 42.7309 81.2968C42.7309 75.2723 49.5322 68.7799 60.9243 63.9297C62.4298 63.2888 63.2542 61.1675 62.7659 59.1915C62.278 57.2158 60.6613 56.1337 59.1564 56.7742C52.5289 59.5958 47.2734 62.9525 43.5355 66.7509C39.1989 71.1588 37 76.0524 37 81.2968C37 89.9864 43.0684 97.7218 54.5485 103.668C63.8795 108.5 76.3908 111.893 90.1446 113.355L84.4298 121.669C83.3695 123.211 83.4624 125.59 84.6375 126.981C85.1854 127.63 85.8719 127.95 86.5562 127.95C87.3387 127.95 88.1187 127.531 88.6843 126.708L99.1108 111.542C99.5859 110.851 99.8489 109.953 99.8489 109.022V108.735C99.8489 107.845 99.6088 106.985 99.1712 106.306L89.3964 91.1396Z" fill="black"/>
<path d="M176.031 33.4413H187.739C189.321 33.4413 190.603 32.159 190.603 30.5771V18.8642C190.603 17.2823 189.321 16 187.739 16H176.031C174.449 16 173.166 17.2823 173.166 18.8642V30.5771C173.166 32.159 174.449 33.4413 176.031 33.4413ZM178.895 21.7284H184.875V27.7129H178.895V21.7284Z" fill="black"/>
<g clip-path="url(#clip0)">
<path d="M115.748 101.779C115.748 100.396 116.87 99.274 118.254 99.274C119.637 99.274 120.759 100.396 120.759 101.779C120.759 103.163 119.637 104.284 118.254 104.284C116.87 104.284 115.748 103.163 115.748 101.779ZM142.757 92.5971V117.834V127.95H109.315V92.5971H142.757ZM138.935 96.419H113.137V113.486L118.008 108.571L123.698 114.169L134.071 103.474L138.935 108.452V96.419ZM138.935 113.921L134.081 108.953L123.761 119.594L118.042 113.965L113.137 118.915V124.128H138.935V113.921Z" fill="#010002"/>
</g>
<defs>
<clipPath id="clip0">
<rect width="35.3525" height="35.3525" fill="white" transform="translate(108.36 92.5971)"/>
</clipPath>
</defs>
</svg>
