<svg width="256" height="144" viewBox="0 0 256 144" fill="none" xmlns="http://www.w3.org/2000/svg">
<path d="M85.4426 99.3443V94.7131V78.9672H69L80.6066 93.7869L69 108.607H97.0492V99.3443H89.3115H85.4426Z" fill="#010002"/>
<path d="M187 78.9672H170.557V94.7131V99.3443H166.689H157.016V108.607H187L175.393 93.7869L187 78.9672Z" fill="#010002"/>
<path d="M166.689 66H89.3115V95.6393H166.689V66Z" fill="#010002"/>
<path d="M94.616 62H90.92C90.2747 62 89.952 61.692 89.952 61.076V39.032C89.952 38.7093 89.7907 38.548 89.468 38.548H84.452C83.836 38.548 83.528 38.24 83.528 37.624V34.632C83.528 34.016 83.836 33.708 84.452 33.708H101.084C101.7 33.708 102.008 34.016 102.008 34.632V37.624C102.008 38.24 101.7 38.548 101.084 38.548H96.068C95.716 38.548 95.54 38.7093 95.54 39.032V61.076C95.54 61.692 95.232 62 94.616 62ZM122.88 62H108.492C107.876 62 107.568 61.692 107.568 61.076V34.632C107.568 34.016 107.876 33.708 108.492 33.708H122.88C123.466 33.708 123.76 34.016 123.76 34.632V37.624C123.76 38.24 123.466 38.548 122.88 38.548H113.684C113.332 38.548 113.156 38.7093 113.156 39.032V44.752C113.156 45.0747 113.332 45.236 113.684 45.236H121.208C121.824 45.236 122.132 45.544 122.132 46.16V49.152C122.132 49.768 121.824 50.076 121.208 50.076H113.684C113.332 50.076 113.156 50.2373 113.156 50.56V56.676C113.156 56.9987 113.332 57.16 113.684 57.16H122.88C123.466 57.16 123.76 57.468 123.76 58.084V61.076C123.76 61.692 123.466 62 122.88 62ZM134.035 62H129.679C129.385 62 129.18 61.912 129.063 61.736C128.945 61.5307 128.945 61.296 129.063 61.032L135.883 47.524L129.283 34.676C129.165 34.4413 129.165 34.2213 129.283 34.016C129.4 33.8107 129.605 33.708 129.899 33.708H134.123C134.856 33.708 135.34 34.016 135.575 34.632L139.755 44.092H139.931L144.067 34.632C144.36 34.016 144.829 33.708 145.475 33.708H149.787C150.08 33.708 150.285 33.8253 150.403 34.06C150.549 34.2653 150.564 34.4853 150.447 34.72L143.759 47.524L150.579 60.988C150.725 61.2813 150.74 61.5307 150.623 61.736C150.505 61.912 150.285 62 149.963 62H145.563C144.947 62 144.521 61.7067 144.287 61.12L139.931 51.616H139.755L135.355 61.12C135.091 61.7067 134.651 62 134.035 62ZM165.54 62H161.844C161.199 62 160.876 61.692 160.876 61.076V39.032C160.876 38.7093 160.715 38.548 160.392 38.548H155.376C154.76 38.548 154.452 38.24 154.452 37.624V34.632C154.452 34.016 154.76 33.708 155.376 33.708H172.008C172.624 33.708 172.932 34.016 172.932 34.632V37.624C172.932 38.24 172.624 38.548 172.008 38.548H166.992C166.64 38.548 166.464 38.7093 166.464 39.032V61.076C166.464 61.692 166.156 62 165.54 62Z" fill="black"/>
</svg>
