<svg width="256" height="144" viewBox="0 0 256 144" fill="none" xmlns="http://www.w3.org/2000/svg">
<path d="M88.0871 95.1564L88 58.3435C87.9958 56.5321 89.8463 55.3075 91.5119 56.0195L125.024 70.3455C125.95 70.7414 126.552 71.6504 126.554 72.6574L126.642 109.47C126.646 111.282 124.795 112.506 123.13 111.794L89.6171 97.4684C88.691 97.0726 88.0893 96.1636 88.0871 95.1564ZM164.871 60.0762L133.945 73.4698L134.026 107.538L164.952 94.1447L164.871 60.0762ZM166.123 55.635C167.452 55.6317 168.645 56.701 168.648 58.1526L168.735 94.9655C168.737 95.9726 168.14 96.8846 167.216 97.2847L133.772 111.769C133.442 111.912 133.104 111.979 132.774 111.98C131.445 111.983 130.252 110.914 130.249 109.462L130.162 72.649C130.159 71.6419 130.757 70.7298 131.681 70.3297L165.125 55.8454C165.455 55.7024 165.793 55.6358 166.123 55.635ZM128.123 34.8999L96.0426 49.2238L128.19 63.3955L160.271 49.0717L128.123 34.8999ZM128.114 31C128.462 30.9992 128.811 31.0706 129.137 31.2142L164.396 46.7575C166.396 47.6394 166.403 50.4751 164.407 51.3662L129.221 67.0764C128.896 67.2216 128.548 67.2945 128.199 67.2954C127.851 67.2962 127.502 67.2249 127.177 67.0813L91.9175 51.5379C89.9173 50.6561 89.9107 47.8203 91.9065 46.9292L127.092 31.2191C127.417 31.0739 127.765 31.0008 128.114 31Z" fill="black"/>
</svg>
