<svg width="256" height="144" viewBox="0 0 256 144" fill="none" xmlns="http://www.w3.org/2000/svg">
<path d="M128 27C103.187 27 83 47.1869 83 72.0001C83 96.8127 103.187 117 128 117C152.812 117 173 96.8129 173 72.0001C173 47.1869 152.812 27 128 27ZM164.756 88.551C164.483 88.5827 164.209 88.6595 163.951 88.795C163.847 88.8501 160.643 90.4847 155.246 92.264C156.722 86.0076 157.368 79.99 157.471 74.3376H168.252C167.962 79.3784 166.738 84.17 164.756 88.551ZM144.415 108.818C140.076 110.761 135.337 111.962 130.356 112.252V101.579C137.074 101.349 143.155 100.385 148.323 99.1721C147.302 102.114 146.094 105.084 144.628 108.067C144.51 108.312 144.446 108.565 144.415 108.818ZM111.223 108.012C111.169 107.908 109.547 104.729 107.775 99.3692C114.02 100.846 120.036 101.51 125.68 101.616V112.254C120.636 111.966 115.841 110.743 111.456 108.761C111.419 108.506 111.349 108.253 111.223 108.012ZM91.2439 88.5533C89.2625 84.1723 88.0376 79.3784 87.7489 74.3376H98.439C98.6645 81.1229 99.6416 87.2485 100.868 92.4513C97.934 91.4321 94.9736 90.2277 91.9953 88.7667C91.751 88.6467 91.4986 88.5829 91.2439 88.5533ZM91.1665 55.6176C91.4675 55.5932 91.7675 55.508 92.0518 55.3595C92.1547 55.304 95.3045 53.6983 100.616 51.9358C99.1639 58.1178 98.521 64.0682 98.4113 69.6613H87.7479C88.0343 64.6867 89.2312 59.9528 91.1665 55.6176ZM111.476 35.2308C115.854 33.2556 120.643 32.0343 125.68 31.7477V42.5772C118.879 42.807 112.741 43.7916 107.534 45.0234C108.56 42.058 109.775 39.065 111.252 36.0562C111.383 35.7896 111.452 35.5093 111.476 35.2308ZM144.658 36.1121C144.712 36.216 146.334 39.3944 148.105 44.7511C141.914 43.2981 135.956 42.6566 130.356 42.5486V31.75C135.33 32.0386 140.062 33.2366 144.398 35.1749C144.419 35.4928 144.501 35.8119 144.658 36.1121ZM130.356 47.3375C136.427 47.4431 142.935 48.2189 149.667 50.0165C151.095 55.4144 152.341 62.1164 152.632 69.6624H130.356V47.3375ZM125.68 47.3822V69.6624H103.202C103.311 63.5962 104.089 57.094 105.888 50.3674C111.316 48.927 118.071 47.6696 125.68 47.3822ZM103.245 74.3376H125.68V96.8152C119.562 96.7121 113.002 95.9313 106.213 94.1061C104.778 88.6789 103.527 81.9341 103.245 74.3376ZM130.356 96.7695V74.3376H152.68C152.58 80.4606 151.799 87.0261 149.976 93.8222C144.579 95.2465 137.887 96.4841 130.356 96.7695ZM157.44 69.6624C157.207 62.9205 156.23 56.8333 155.011 51.6601C157.985 52.6884 160.99 53.9064 164.01 55.3887C164.275 55.5183 164.551 55.5794 164.828 55.605C166.768 59.9449 167.966 64.6823 168.254 69.6624H157.44V69.6624ZM161.058 48.9494C158.541 47.9055 156.043 47.0117 153.573 46.2505C152.699 43.3335 151.807 40.8754 151.029 38.9248C154.932 41.6514 158.33 45.0478 161.058 48.9494ZM104.792 39.0542C103.761 41.5471 102.875 44.0194 102.121 46.4656C99.269 47.3227 96.8564 48.1953 94.9329 48.9625C97.6195 45.1168 100.959 41.7611 104.792 39.0542ZM95.1163 95.2968C97.5356 96.2933 99.9365 97.1525 102.312 97.8878C103.139 100.653 103.985 103.009 104.735 104.905C101.013 102.266 97.7588 99.0156 95.1163 95.2968ZM151.11 105.015C152.121 102.566 152.993 100.136 153.737 97.7328C156.566 96.8867 158.983 96.0206 160.911 95.2582C158.228 99.0457 154.911 102.349 151.11 105.015Z" fill="black"/>
</svg>
