# Blender v2.78 (sub 0) OBJ File: 'theatre.blend'
# www.blender.org
mtllib theatre.mtl
o Plane
v -6.208634 -2.509470 -15.916126
v 6.430537 -2.509470 -15.916126
v -6.208634 4.600409 -15.916126
v 6.430537 4.600409 -15.916126
vn 0.0000 0.0000 1.0000
usemtl Material.002
s off
f 1//1 2//1 4//1 3//1
o Cube
v -8.000000 8.017390 -16.208992
v -8.000003 8.017390 16.208988
v 7.999995 8.017390 16.209003
v 8.000004 8.017390 -16.208984
v -7.999997 -7.982610 -16.208996
v -8.000001 -0.380866 16.208988
v 8.000000 -0.380866 16.208992
v 8.000000 -7.982610 -16.208992
vt 0.7536 0.0036
vt 0.9964 0.0036
vt 0.9964 0.2468
vt 0.7536 0.2468
vt 0.3690 0.9964
vt 0.2536 0.5036
vt 0.4964 0.5036
vt 0.4964 0.9964
vt 0.1310 0.5170
vt 0.1310 0.7602
vt 0.0036 0.7602
vt 0.0036 0.5170
vt 0.5036 0.4964
vt 0.6190 0.0036
vt 0.7464 0.0036
vt 0.7464 0.4964
vt 0.4964 0.0036
vt 0.4964 0.4964
vt 0.2536 0.4964
vt 0.2536 0.0036
vt 0.0036 0.0036
vt 0.2464 0.0036
vt 0.2464 0.5097
vt 0.0036 0.5097
vn -0.0000 -0.0000 1.0000
vn 1.0000 0.0000 0.0000
vn 0.0000 0.0000 -1.0000
vn -1.0000 0.0000 -0.0000
vn 0.0000 -1.0000 0.0000
vn 0.0000 0.9736 -0.2283
usemtl Material.001
s off
f 8/1/2 5/2/2 9/3/2 12/4/2
f 10/5/3 9/6/3 5/7/3 6/8/3
f 11/9/4 10/10/4 6/11/4 7/12/4
f 12/13/5 11/14/5 7/15/5 8/16/5
f 8/17/6 7/18/6 6/19/6 5/20/6
f 12/21/7 9/22/7 10/23/7 11/24/7
