<svg xmlns="http://www.w3.org/2000/svg" viewBox="0 0 623.54 747.71"><defs><style>.cls-1{fill:#f2f2f2;}.cls-2,.cls-3,.cls-5,.cls-6{fill:none;stroke-linecap:round;stroke-linejoin:round;}.cls-2{stroke:#000;stroke-width:2.5px;}.cls-3{stroke:#262626;stroke-width:11px;}.cls-4{fill:#a4a4a4;}.cls-5,.cls-6{stroke:#161616;stroke-width:5px;}.cls-6{stroke-dasharray:16.09 16.09;}</style></defs><title>map-monochrome</title><g id="Layer_2" data-name="Layer 2"><g id="vector"><path class="cls-1" d="M80.75,695.22v-.5L29.63,629.78c5.6,19.65,13.93,37.57,25.76,52.86,47.15,61.26,150.43,80.51,225.5,52.45,49.14-18.33,86.24-56.85,122.85-98.4Z"/><path class="cls-1" d="M619.9,315v70.44C624.89,363.32,624.62,339.38,619.9,315Z"/><path class="cls-1" d="M557,187.41q-5.79-7-12-13.8C484.8,107.94,397,64.75,317.32,73S166.3,141.29,119,206.81a421.18,421.18,0,0,0-29.16,46.76l437.91-79.35Z"/><polygon class="cls-2" points="80.75 694.72 1.25 593.72 1.25 153.72 80.75 254.72 80.75 694.72"/><polygon class="cls-2" points="527.75 614.22 80.75 695.22 80.75 255.22 527.75 174.22 527.75 614.22"/><polygon class="cls-2" points="619.9 655.76 527.75 614.22 527.75 174.22 619.9 215.76 619.9 655.76"/><line class="cls-3" x1="394.38" y1="454.45" x2="467.99" y2="528.07"/><line class="cls-3" x1="394.38" y1="528.07" x2="467.99" y2="454.45"/><path class="cls-4" d="M292.94,0c-48.09,0-96.7,46.78,0,172C389.63,46.78,341,0,292.94,0Zm0,88.07a32.8,32.8,0,1,1,32.79-32.8A32.79,32.79,0,0,1,292.94,88.07Z"/><path class="cls-5" d="M133.24,245.71c-1.4,2.26-2.73,4.57-4,6.92"/><path class="cls-6" d="M122.27,267.13c-11.54,27.46-16.08,58.34-16.08,86.17,0,142.57,34.14,242.47,128.52,242.47,83.17,0,100.69-81.87,135.77-101.3"/><path class="cls-5" d="M377.9,491.41a30.26,30.26,0,0,1,7.91-1.05"/></g></g></svg>