<svg xmlns="http://www.w3.org/2000/svg" xmlns:xlink="http://www.w3.org/1999/xlink" viewBox="0 0 757.64 883.24"><defs><style>.cls-1,.cls-4,.cls-7{fill:none;}.cls-2{fill:#949494;}.cls-3{fill:#f1f1f1;}.cls-4,.cls-7{stroke:#000;stroke-linecap:round;stroke-linejoin:round;stroke-width:2.5px;}.cls-5{fill:url(#New_Pattern);}.cls-6{fill:#a4a4a4;}.cls-7{fill-rule:evenodd;}</style><pattern id="New_Pattern" data-name="New Pattern" width="12" height="12" patternTransform="translate(22.16 1228.77) rotate(-180)" patternUnits="userSpaceOnUse" viewBox="0 0 12 12"><rect class="cls-1" width="12" height="12"/><rect class="cls-1" width="12" height="12"/><rect class="cls-1" width="12" height="12"/><circle class="cls-2" cx="12" cy="9" r="2"/><circle class="cls-2" cx="6" cy="12" r="2"/><circle class="cls-2" cy="9" r="2"/><circle class="cls-2" cx="12" cy="3" r="2"/><circle class="cls-2" cx="6" cy="6" r="2"/><circle class="cls-2" cy="3" r="2"/><circle class="cls-2" cx="6" r="2"/></pattern></defs><title>unlock-monochrome</title><g id="Layer_2" data-name="Layer 2"><g id="vector"><path class="cls-3" d="M609.32,264.38c-1.69,4.34-3.9,7.26-4.88,10.94-.92,3.51-.79,22.42-.33,34.42,7,11.19,10.38,27.42,11.26,45.21,1.21,24.53,18,54.05,18,71.07,0,11.06-9.18,29.92-25.6,36.18,5.36,42.14-1.66,91.2-4.24,94.86,3.36,15,11.83,63.64,18.7,102.37,39.35-46,67.69-98.44,81.57-154.84C723.19,425.38,714,338.4,679.47,274Z"/><path d="M692.91,813.92c-3.68-5.09-57.73-90.27-61.13-103.29-3.11-11.92-22.66-128.71-28.22-153.57,0,0,0,0,0,0-2.91.61-9.46.1-17.88-1.18-26.48,22.21-20.81,126.56-18.88,131.63,2.26,6,94.72,140,102.64,146.2C677.34,833.73,694,821.28,692.91,813.92Z"/><path d="M600.21,557.34c-18.82,0-85.05-15.42-94.37-24.7,1,20.12,14.7,134.39,16.51,150.66,1.94,17.47,31.89,158.48,34.54,162s22.81,2.76,26.29,1-6.8-147-6.8-157.53C576.38,678.75,601,589.91,600.21,557.34Z"/><path class="cls-3" d="M636.5,218c-41.09-37.12-98-52.9-162-60.26v77.91l11.61,1.59c2.61-4,5.88-7.06,8.05-7.13,1.73,1.22,3.72,4.81,5.52,9l86.61,11.84v-1.06a8.22,8.22,0,0,1,8.23-8.23h1a8.22,8.22,0,0,1,8.23,8.23v3.45l.8.1c.41-2.79,1-5.86,4.16-5.18,1,.2,1.63,3.11,1.94,6l62.38,8.52A199.22,199.22,0,0,0,636.5,218Z"/><path class="cls-3" d="M506.79,250.36l-3.2-.43a32.86,32.86,0,0,1,1.35,6.17A18,18,0,0,1,506.79,250.36Z"/><path class="cls-3" d="M587.06,261.34l-70.63-9.66a37.85,37.85,0,0,1-7.22,18c.29,7.64,10,83.31,11.57,87.69,1.2,3.38,12.08,21.17,17,30.33a10.64,10.64,0,0,1,3.13,0c2.13.34,6.8,7.84,11.13,17.81a26.64,26.64,0,0,1,9.31-4v-25c-12.21-4.6-21.17-19.66-21.17-37.55a49.55,49.55,0,0,1,3.54-18.67,24.78,24.78,0,0,1-.67-5.76c0-11.94,12.73-20.12,34.69-20.12a32,32,0,0,1,6.84.71c1.77-10.19,3.59-20.62,4.22-23.27C590.26,265.61,585.81,261.67,587.06,261.34Z"/><path class="cls-3" d="M505.84,532.64a3.47,3.47,0,0,1-1.08-1.71c-3.44-18.5,5.33-58.28,20-89-11.22-11-20.55-24.25-20.78-26.59-.18-1.93,1-4.44,3-7.17-4.9-8.39-13-27.75-14-32.89-1.14-5.94-4-94.74-4-100S482,256.81,482,248.89a13.69,13.69,0,0,1,.14-1.89l-7.64-1v234.3a22.41,22.41,0,0,1-22.42,22.41H117.39A22.41,22.41,0,0,1,95,480.26V174.14c-17.1,7.53-32.17,17.21-44.61,29.65-59.14,59.32-58.78,180.88-36.58,305C36.17,632.88,80.39,759.36,169.19,807.4S391,824.68,496,763.54q19.22-11.22,37.11-23.77c-5.55-26.88-10.06-50-10.77-56.47C520.54,667,506.85,552.76,505.84,532.64Z"/><path class="cls-3" d="M577.11,703.74c0,.45,0,.9.08,1.37l.52-.47Z"/><rect class="cls-4" x="586.33" y="241.62" width="17.47" height="20.69" rx="8.23"/><line class="cls-4" x1="561.36" y1="401.43" x2="561.36" y2="376.44"/><rect class="cls-4" x="94.97" y="123.1" width="379.57" height="379.57" rx="22.42"/><path class="cls-5" d="M308.48,296.05a35.09,35.09,0,1,0-47.45,0L234,405.66H335.48Z"/><path class="cls-4" d="M162.9,123.1a121.86,121.86,0,0,1,243.71,0"/><ellipse class="cls-4" cx="569.19" cy="338.89" rx="29" ry="39"/><path class="cls-4" d="M524.79,442c-14.71,30.7-23.47,70.48-20,89,1.78,9.56,85.92,28.85,98.78,26.15,4.57-6.22,23.22-156.06-38.3-156.06a24,24,0,0,0-13.19,4.42"/><path class="cls-4" d="M559.67,451c7.65-17.12-13.44-62.45-18.75-63.31-10.83-1.75-37.76,19-36.91,27.72.3,3.1,16.55,25.36,32,36.08"/><rect class="cls-6" x="368.05" y="245.6" width="358.11" height="10.23" transform="translate(38.99 -71.78) rotate(7.78)"/><rect class="cls-6" x="366.9" y="232.88" width="21.9" height="29.63" transform="translate(37.02 -48.89) rotate(7.78)"/><rect class="cls-6" x="397.87" y="236.42" width="11.78" height="29.63" transform="translate(37.74 -52.36) rotate(7.78)"/><path class="cls-4" d="M604.74,319.26c-.83-4.74-1.58-39.09-.3-43.94s4.74-8.39,6.29-15.63c.53-2.49-.31-11.11-2-11.47-3.64-.78-3.85,3.3-4.33,6.3-1.86,10.23-5.65,8.36-7.4,8.12s-7.76-1.28-9.73-1.33,3.05,4,1.52,10.47c-1.2,5.09-6.84,39-8,44.55C585,316.49,604.74,319.26,604.74,319.26Z"/><rect class="cls-6" x="417.79" y="239.14" width="11.78" height="29.63" transform="translate(38.29 -55.03) rotate(7.78)"/><rect class="cls-6" x="368.01" y="235.76" width="63.09" height="10.5" transform="translate(36.32 -51.89) rotate(7.78)"/><path class="cls-6" d="M734.69,249.33a26.54,26.54,0,1,0,22.71,29.89A26.54,26.54,0,0,0,734.69,249.33ZM749,278.07a18.07,18.07,0,1,1-15.45-20.35A18.07,18.07,0,0,1,749,278.07Z"/><path class="cls-7" d="M691.49,816.51l22.3,28.29-26.15,37L663,882l22.37-29.76-12.27-20.58Z"/><polyline class="cls-4" points="580.83 845.04 582.36 881.99 509.14 881.99 561.08 859.89 562.03 845.04"/><path class="cls-4" d="M507,408.19c-4.9-8.4-13-27.75-14-32.89-1.14-5.94-4-94.74-4-100S482,256.81,482,248.89s8.06-18.66,12.16-18.8c4.38,3.11,10.46,21.35,10.74,26,1.53-10,8.77-12.3,10.75-12.3s1.72,15.45-6.48,25.85c.29,7.64,10,83.31,11.57,87.69,1.2,3.37,12.08,21.16,17,30.33"/><path class="cls-4" d="M507,408.19c-4.9-8.4-13-27.75-14-32.89-1.14-5.94-4-94.74-4-100S482,256.81,482,248.89s8.06-18.66,12.16-18.8c4.38,3.11,10.46,21.35,10.74,26,1.53-10,8.77-12.3,10.75-12.3s1.72,15.45-6.48,25.85c.29,7.64,10,83.31,11.57,87.69,1.2,3.37,12.08,21.16,17,30.33"/><path d="M615.37,355c-1.63-33-11.89-60.61-37.62-60.61-22,0-34.69,8.18-34.69,20.12s7.6,20,20,24.82a7.79,7.79,0,1,1,6.14,12.58,7.2,7.2,0,0,1-1-.08c.8,8.62,2.41,11.18,2.41,19.64,0,24.22-4.13,12.11-4.13,53.93,0,25.22,10.56,38.94,30,38.94,23.51,0,37-24.87,37-38.27C633.4,409,616.58,379.48,615.37,355Z"/><path class="cls-4" d="M562,341a7.8,7.8,0,1,1,3.72,10"/></g></g></svg>