<svg width="750" height="870" viewBox="0 0 750 870" fill="none" xmlns="http://www.w3.org/2000/svg">
<path d="M37.9723 356.029C47.1535 287.83 31.9723 230.029 101.972 185.529C171.972 141.029 202.972 152.529 251.472 166.529C301.433 180.951 426.472 179.196 508.972 185.529C591.472 191.863 613.993 203.26 632.972 255.529C646.489 292.752 700.919 291.477 698.972 331.029C693.232 447.686 743.472 565.529 698.972 637.029C668.237 686.413 564.972 649.03 508.972 676.029C365.54 745.184 285.442 721.517 150.472 637.029C68.3032 585.594 89.3086 641.593 57.4723 550.03C32.5913 478.47 27.8643 431.114 37.9723 356.029Z" fill="#F1F1F1"/>
<g style="mix-blend-mode:darken" clip-path="url(#clip0)">
<path d="M62.0036 303.654C63.1118 310.686 65.9438 317.478 65.9684 324.59C66.0608 347.828 37.8699 362.101 33.5541 384.933C30.993 398.479 37.6298 412.321 46.9877 422.425C56.3457 432.53 68.2771 439.814 79.2666 448.126C109.672 471.168 133.109 502.176 146.983 537.717C149.759 544.86 152.148 552.224 152.936 559.847C153.509 565.389 153.238 571.06 154.537 576.472C159.677 597.956 185.744 606.293 207.785 607.684C243.283 609.888 278.815 603.953 311.671 590.333C319.058 587.254 326.686 583.756 334.616 584.625C340.957 585.32 346.615 588.75 352.181 591.872C368.571 601.072 386.014 608.254 404.13 613.263C414.165 616.034 424.699 618.14 434.95 616.342C465.732 610.911 482.09 573.572 512.294 565.407C533.19 559.761 554.935 569.625 573.675 580.456C592.416 591.287 611.76 603.762 633.394 603.793C662.256 603.83 685.983 581.983 705.561 560.777C709.668 556.325 713.842 551.67 715.8 545.937C719.771 534.3 713.337 521.228 703.825 513.408C694.313 505.588 682.32 501.709 670.863 497.238C651.443 489.661 632.91 479.981 615.595 468.372C604.39 460.86 593.536 452.363 585.871 441.279C579.278 431.723 575.319 420.646 570.899 409.907C561.208 386.392 547.504 362.495 524.62 351.461C505.935 342.446 484.233 343.456 463.491 343.216C432.93 342.877 401.593 339.201 374.498 325.064C351.614 313.124 332.818 294.276 309.596 282.99C272.656 265.053 230.429 268.569 190.626 269.246C171.498 269.573 148.762 271.482 130.391 265.213C116.803 260.577 109.809 251.1 94.2024 254.918C72.8576 260.121 58.5929 281.962 62.0036 303.654Z" fill="white"/>
<path d="M529.453 304.214C521.086 303.962 511.827 305.027 506.132 311.16C501.773 315.852 500.381 322.637 496.392 327.655C490.734 334.78 480.841 337.218 474.573 343.813C471.868 346.727 469.968 350.296 469.062 354.167C468.155 358.039 468.272 362.08 469.402 365.893C470.27 368.701 471.686 371.318 472.609 374.107C476.482 385.806 471.427 398.263 468.3 410.165C467.951 411.141 467.889 412.197 468.121 413.207C468.601 414.66 470.134 415.424 471.396 416.286C475.54 419.112 477.658 424.223 478.033 429.216C478.409 434.21 477.282 439.198 476.143 444.08C473.12 457.011 469.303 470.933 458.806 479.079C454.374 482.558 448.451 485.378 447.293 490.92C445.939 497.41 452.133 502.927 458.074 505.864C475.515 514.485 495.764 514.608 514.843 518.45C531.644 521.837 548.403 528.253 565.407 526.061C572.986 525.088 580.232 522.422 587.404 519.78L632.064 503.321C633.326 502.936 634.512 502.338 635.573 501.554C638.264 499.313 638.356 495.052 636.891 491.868C635.426 488.685 632.766 486.247 630.426 483.636C625.329 477.928 621.45 469.868 624.233 462.737C626.08 458.033 630.482 454.64 632.039 449.807C634.933 440.879 627.114 432.517 622.374 424.426C617.988 416.927 615.999 408.267 616.673 399.605C617.418 390.295 621.229 381.391 621.506 372.057C621.764 363.362 618.951 354.902 616.168 346.657C613.871 339.847 611.532 332.957 607.647 326.904C600.302 315.47 587.257 308.284 573.835 307.09C567.5 306.529 561.313 308.586 555.089 307.785C546.439 306.72 538.263 304.479 529.453 304.214Z" fill="black"/>
<path d="M541.944 548.548C541.944 548.548 491.313 516.8 511.002 480.2C515.557 471.74 517.571 463.735 517.983 456.426C518.092 454.5 518.092 452.57 517.983 450.644C517.983 450.552 517.983 450.46 517.983 450.367C517.917 449.374 517.829 448.397 517.718 447.436C515.373 428.114 502.961 415.522 502.961 415.522C502.961 415.522 586.943 391.009 572.881 413.108C566.355 423.367 568.307 433.428 572.678 443.84C573.14 444.936 573.632 446.045 574.143 447.147C579.192 458.126 586.198 469.498 588.156 481.832C592.17 507.151 541.944 548.548 541.944 548.548Z" fill="#E5E5E5"/>
<path opacity="0.1" d="M572.881 413.108C566.355 423.367 568.307 433.428 572.678 443.84C564.576 449.065 555.277 452.139 545.658 452.772C536.039 453.405 526.417 451.578 517.7 447.461C515.373 428.114 502.961 415.522 502.961 415.522C502.961 415.522 586.949 391.003 572.881 413.108Z" fill="black"/>
<path d="M541.938 451.691C573.23 451.691 598.597 426.32 598.597 395.024C598.597 363.728 573.23 338.357 541.938 338.357C510.646 338.357 485.279 363.728 485.279 395.024C485.279 426.32 510.646 451.691 541.938 451.691Z" fill="#E5E5E5"/>
<path opacity="0.1" d="M517.983 450.669C517.983 450.577 517.983 450.484 517.983 450.392L518.051 450.281C518.014 450.416 517.989 450.546 517.983 450.669Z" fill="black"/>
<path opacity="0.1" d="M541.944 548.548C541.944 548.548 491.313 516.8 511.002 480.2C515.557 471.74 517.571 463.735 517.983 456.426C519.134 465.465 525.371 476.703 536.724 492.256C541.649 499.029 543.767 508.5 544.438 517.964L545.564 518.783L551.105 515.433C551.721 504.965 553.839 494.387 558.85 486.887C572.019 467.183 575.147 457.331 574.174 447.122C579.222 458.101 586.229 469.474 588.186 481.807C592.17 507.151 541.944 548.548 541.944 548.548Z" fill="black"/>
<path d="M623.112 472.288C592.945 470.096 573.86 446.673 573.86 446.673C575.467 457.645 572.857 467.466 558.789 488.543C553.808 496.019 551.696 506.579 551.081 517.071L545.54 520.42L544.413 519.602C543.742 510.144 541.63 500.661 536.699 493.894C522.637 474.603 516.382 461.943 518.014 451.894C518.014 451.894 502.542 477.01 472.406 479.024C442.27 481.037 416.954 502.336 414.534 541.319L424.176 554.582H519.276L519.239 554.785H671.306L680.984 540.297C678.565 497.736 653.28 474.48 623.112 472.288Z" fill="#E5E5E5"/>
<path d="M670.638 553.535H520.737L520.774 553.332H519.276H424.812L415.811 540.949C417.082 521.94 423.883 507.318 433.962 497.19C444.125 486.977 457.693 481.26 472.489 480.271C487.903 479.241 499.551 472.302 507.324 465.654C511.211 462.329 514.14 459.068 516.099 456.634C516.249 456.448 516.393 456.267 516.532 456.091C516.709 460.28 518.005 464.841 520.334 469.947C523.505 476.895 528.643 484.964 535.689 494.63C540.413 501.114 542.501 510.313 543.166 519.69L543.208 520.27L543.678 520.613L544.805 521.432L545.476 521.92L546.187 521.49L551.727 518.141L552.29 517.8L552.329 517.144C552.94 506.722 555.034 496.433 559.828 489.237C572.368 470.45 576 460.34 575.48 450.297C575.775 450.598 576.093 450.919 576.436 451.257C578.733 453.523 582.111 456.564 586.445 459.674C595.104 465.888 607.635 472.416 623.022 473.534C637.803 474.608 651.362 480.837 661.53 491.996C671.632 503.084 678.449 519.11 679.712 539.951L670.638 553.535Z" stroke="black" stroke-width="2.5"/>
<path opacity="0.1" d="M580.244 367.636C577.782 373.732 573.411 378.879 568.633 383.399C562.033 389.649 553.734 395.153 544.659 394.728C549.607 390.119 553.188 384.234 555.009 377.722C549.283 381.059 544.955 386.342 539.488 390.104C534.021 393.866 526.294 395.806 520.95 391.878C530.657 386.997 538.72 379.378 544.142 369.963C531.164 373.331 524.503 387.949 512.812 394.513C507.332 397.592 500.923 398.749 494.644 398.614C490.18 398.521 485.206 397.481 482.718 393.774C481.265 391.619 480.927 388.91 480.871 386.305C480.6 374.495 485.409 362.907 492.815 353.714C500.221 344.521 510.053 337.532 520.569 332.107C524.312 330.174 528.215 328.413 532.383 327.797C537.567 327.046 542.849 328.148 547.935 329.318C554.547 330.833 561.196 332.495 567.285 335.475C580.281 341.91 585.958 353.572 580.244 367.636Z" fill="black"/>
<path d="M580.244 366.829C577.782 372.925 573.411 378.073 568.633 382.592C562.033 388.842 553.734 394.347 544.659 393.922C549.607 389.312 553.188 383.428 555.009 376.915C549.283 380.252 544.955 385.535 539.488 389.298C534.021 393.06 526.294 394.999 520.95 391.071C530.657 386.19 538.72 378.572 544.142 369.157C531.164 372.525 524.503 387.142 512.812 393.706C507.332 396.785 500.923 397.943 494.644 397.807C490.18 397.715 485.206 396.674 482.718 392.967C481.265 390.812 480.927 388.103 480.871 385.498C480.6 373.688 485.409 362.1 492.815 352.907C500.221 343.714 510.053 336.725 520.569 331.301C524.312 329.367 528.215 327.606 532.383 326.99C537.567 326.239 542.849 327.341 547.935 328.511C554.547 330.026 561.196 331.688 567.285 334.669C580.281 341.091 585.958 352.765 580.244 366.829Z" fill="black"/>
<path d="M189.574 441.888C229.298 441.888 261.501 409.681 261.501 369.951C261.501 330.221 229.298 298.013 189.574 298.013C149.849 298.013 117.647 330.221 117.647 369.951C117.647 409.681 149.849 441.888 189.574 441.888Z" fill="black"/>
<path d="M154.583 401.091C154.589 401.137 154.596 401.185 154.602 401.235C154.697 401.971 154.832 403.051 154.99 404.429C155.306 407.186 155.716 411.138 156.096 415.928C156.855 425.503 157.49 438.444 156.993 451.878L154.583 401.091ZM154.583 401.091C155.132 400.885 155.915 400.596 156.9 400.248C158.96 399.518 161.9 398.525 165.411 397.476C172.443 395.375 181.725 393.06 190.804 392.166C199.934 391.266 208.62 391.828 214.637 395.248C217.61 396.938 219.931 399.325 221.362 402.615C222.8 405.92 223.376 410.226 222.693 415.8C221.267 427.386 222.452 438.997 225.026 449.879C225.026 449.879 225.026 449.879 225.026 449.879L226.242 449.591C227.092 453.187 228.089 456.703 229.197 460.114M154.583 401.091L156.993 451.879C156.969 452.526 156.939 453.173 156.91 453.819L156.906 453.909L156.906 453.909C156.177 469.909 153.774 486.547 147.908 498.877C144.111 506.864 144.649 512.373 147.199 516.237C149.817 520.202 154.767 522.779 160.515 524.357C166.225 525.925 172.498 526.447 177.462 526.472C179.939 526.485 182.069 526.374 183.614 526.214C184.389 526.133 184.997 526.043 185.42 525.954C185.625 525.911 185.763 525.874 185.846 525.846C186.046 525.697 186.264 525.597 186.381 525.543C186.594 525.446 186.858 525.341 187.157 525.231C187.758 525.009 188.572 524.738 189.558 524.429C191.533 523.81 194.254 523.016 197.46 522.111C203.875 520.302 212.27 518.041 220.608 515.831C228.947 513.621 237.235 511.461 243.438 509.853C246.539 509.049 249.119 508.384 250.924 507.919C251.307 507.82 251.656 507.731 251.966 507.651C251.548 507.068 251.022 506.324 250.407 505.43C248.758 503.03 246.469 499.547 243.9 495.201C238.767 486.515 232.503 474.357 228.008 460.501C228.008 460.5 228.008 460.5 228.008 460.5L229.197 460.114M229.197 460.114C236.919 483.921 249.923 502.712 253.267 507.317L229.197 460.114ZM185.913 525.821C185.912 525.821 185.906 525.824 185.892 525.83C185.906 525.823 185.914 525.82 185.913 525.821Z" fill="#E5E5E5" stroke="black" stroke-width="2.5"/>
<path opacity="0.1" d="M226.236 449.604C216.111 457.112 203.935 461.349 191.337 461.75C178.739 462.15 166.319 458.695 155.737 451.845C156.728 425.103 153.207 400.289 153.207 400.289C153.207 400.289 229.548 370.117 223.927 415.965C222.53 427.375 223.693 438.834 226.236 449.604Z" fill="black"/>
<path d="M250 398.682C250 432.171 222.855 459.32 189.37 459.32C155.886 459.32 128.741 432.171 128.741 398.682C128.741 365.192 155.886 338.043 189.37 338.043C222.855 338.043 250 365.192 250 398.682Z" fill="#E5E5E5" stroke="black" stroke-width="2.5"/>
<path opacity="0.1" d="M254.07 508.401C254.07 508.401 188.195 525.279 186.563 526.873C184.932 528.468 131.111 531.294 146.779 498.34C152.536 486.24 154.931 469.806 155.657 453.852C156.273 462.189 161.038 482.38 161.647 489.097C161.686 489.49 161.765 489.878 161.881 490.255C162.774 493.241 165.957 496.683 169.793 499.947L170.02 500.138C174.791 504.14 180.712 506.521 186.925 506.936C193.138 507.351 199.322 505.779 204.583 502.447C210.059 498.997 215.315 495.209 220.32 491.105C227.486 485.187 229.721 477.214 229.998 470.169C230.112 466.788 229.844 463.405 229.197 460.084C238.112 487.601 254.07 508.401 254.07 508.401Z" fill="black"/>
<path d="M76.0714 522.246L76.0714 522.247C75.6649 525.105 74.0486 533.388 72.5457 540.904C71.7919 544.673 71.0632 548.266 70.5229 550.917C70.2883 552.069 70.0892 553.042 69.939 553.775H335.826C335.77 553.381 335.699 552.908 335.611 552.364C335.323 550.569 334.859 548.001 334.155 544.924C332.745 538.765 330.381 530.594 326.566 522.505L326.562 522.499L326.559 522.492C323.778 516.407 320.113 510.767 315.682 505.755C313.51 503.344 311.089 501.17 308.459 499.268C305.227 496.944 301.655 495.134 297.869 493.901C297.869 493.901 297.869 493.901 297.868 493.9L298.255 492.712C267.724 482.802 234.633 459.774 229.258 455.952L76.0714 522.246ZM76.0714 522.246C76.1575 521.64 76.5063 520.491 77.1688 518.885C77.8186 517.309 78.7362 515.375 79.9005 513.228C82.2301 508.933 85.5245 503.833 89.5908 499.099C96.4006 491.18 105.189 484.451 115.083 483.93C120.224 483.66 125.392 481.652 130.204 478.874C135.025 476.092 139.562 472.496 143.457 468.956C147.356 465.414 150.635 461.908 152.939 459.288C153.592 458.546 154.167 457.874 154.656 457.293C155.186 461.474 156.261 467.172 157.33 472.699C157.475 473.445 157.619 474.187 157.762 474.923C158.986 481.227 160.112 487.031 160.384 490.029L160.385 490.039C160.432 490.514 160.526 490.982 160.667 491.437C161.185 493.167 162.328 494.927 163.76 496.623C165.206 498.335 167.016 500.06 168.964 501.718L168.971 501.724L169.198 501.914L76.0714 522.246ZM231.229 471.032C231.363 466.59 230.874 462.153 229.779 457.849L169.199 501.915C174.172 506.089 180.344 508.573 186.822 509.007C193.3 509.441 199.748 507.802 205.234 504.328C210.751 500.849 216.048 497.031 221.093 492.897L221.097 492.894C228.627 486.676 230.942 478.308 231.228 471.044L231.229 471.032Z" fill="#E5E5E5" stroke="black" stroke-width="2.5"/>
<path opacity="0.1" d="M219.119 377.9C220.72 384.058 222.813 390.899 228.311 394.107C229.047 394.46 229.726 394.923 230.324 395.48C231.678 396.951 231.266 399.248 231.063 401.243C230.361 408.09 233.304 415.03 238.13 419.937C242.957 424.845 249.489 427.843 256.231 429.222C257.881 429.561 259.734 429.777 261.156 428.847C262.117 428.116 262.824 427.102 263.175 425.947C265.053 420.953 264.259 415.344 262.689 410.245C261.119 405.147 258.804 400.282 257.616 395.079C254.79 382.734 258.533 369.976 260.22 357.42C260.78 353.246 261.107 348.942 260.029 344.872C258.472 338.973 254.174 334.244 250.025 329.767C247.79 327.36 245.506 324.909 242.637 323.333C234.178 318.709 223.287 322.816 214.255 319.447C210.641 318.099 207.569 315.636 204.128 313.906C196.82 310.211 188.158 310.008 180.148 311.689C172.138 313.37 164.633 316.824 157.202 320.248L151.52 322.822C143.516 326.516 134.94 330.691 130.631 338.419C126.044 346.645 127.318 357.174 122.732 365.401C121.34 367.864 119.401 370.228 119.038 373.06C118.792 375.105 119.42 377.149 120.004 379.125C121.433 383.934 122.676 388.879 122.566 393.903C122.455 398.928 120.854 404.075 117.296 407.61C115.793 409.1 113.786 411.009 114.71 412.911C115.013 413.443 115.434 413.898 115.941 414.241C118.864 416.461 122.299 417.907 125.929 418.445C129.559 418.984 133.267 418.596 136.707 417.32C139.404 416.292 141.953 414.642 143.479 412.209C144.494 410.428 145.229 408.5 145.659 406.495C147.604 399.248 149.562 391.878 149.408 384.372C149.322 380.061 148.534 375.714 149.162 371.441C149.79 367.168 152.283 362.765 156.439 361.589C159.517 360.709 162.811 361.774 166.025 361.743C170.654 361.706 176.331 356.571 180.622 358.079C184.316 359.385 187.24 366.453 190.294 369.163C198.039 376.078 208.85 379.692 219.119 377.9Z" fill="black"/>
<path d="M219.119 377.094C220.72 383.251 222.813 390.092 228.311 393.3C229.037 393.646 229.707 394.098 230.299 394.642C231.654 396.114 231.241 398.411 231.038 400.406C230.336 407.253 233.279 414.192 238.106 419.1C242.933 424.007 249.465 427.006 256.206 428.385C257.856 428.724 259.709 428.939 261.131 428.009C262.092 427.279 262.799 426.264 263.151 425.109C265.028 420.116 264.234 414.506 262.664 409.408C261.094 404.309 258.78 399.445 257.591 394.242C254.765 381.896 258.509 369.138 260.196 356.583C260.756 352.408 261.082 348.104 260.005 344.034C258.447 338.135 254.15 333.406 250 328.93C247.765 326.522 245.481 324.072 242.612 322.495C234.153 317.871 223.262 321.978 214.231 318.61C210.617 317.262 207.545 314.799 204.103 313.068C196.795 309.374 188.133 309.171 180.123 310.852C172.114 312.533 164.609 315.987 157.178 319.411L151.569 321.997C143.566 325.691 134.99 329.866 130.68 337.594C126.093 345.82 127.368 356.349 122.781 364.575C121.39 367.038 119.45 369.403 119.087 372.235C118.841 374.28 119.469 376.324 120.054 378.3C121.482 383.109 122.726 388.054 122.615 393.078C122.504 398.103 120.903 403.25 117.345 406.785C115.843 408.275 113.836 410.184 114.759 412.086C115.062 412.618 115.483 413.073 115.99 413.416C118.913 415.636 122.348 417.082 125.979 417.62C129.609 418.158 133.316 417.771 136.757 416.495C139.453 415.467 142.002 413.817 143.529 411.384C144.544 409.603 145.279 407.675 145.708 405.67C147.654 398.423 149.611 391.052 149.458 383.547C149.371 379.236 148.583 374.889 149.211 370.616C149.839 366.343 152.333 361.94 156.488 360.764C159.567 359.883 162.86 360.949 166.074 360.918C170.704 360.881 176.38 355.746 180.671 357.254C184.365 358.56 187.29 365.628 190.343 368.338C198.039 375.277 208.85 378.892 219.119 377.094Z" fill="black"/>
<path d="M425.253 403.38H284.206V524.349H425.253V403.38Z" fill="#463A3E"/>
<path opacity="0.05" d="M425.253 403.38H284.206V524.349H425.253V403.38Z" fill="black"/>
<path d="M405.029 577.401H284.36C285.918 568.615 290.474 558.984 299.351 548.603C306.361 540.442 312.094 531.266 316.356 521.387C317.501 518.748 318.527 516.102 319.434 513.45C322.101 505.576 323.915 497.439 324.846 489.178C324.846 488.944 324.901 488.71 324.926 488.476C325.548 482.767 325.799 477.025 325.677 471.284C325.677 470.871 325.677 470.471 325.677 470.052C325.246 455.966 322.916 442.002 318.751 428.539L318.597 428.059C317.285 423.927 316.325 421.606 316.325 421.606C316.325 421.606 318.72 420.306 322.672 418.392L323.005 418.231C337.54 411.249 371.949 396.68 387.119 407.062L387.366 407.228C392.672 411.009 395.529 417.948 394.187 429.506C394.187 429.549 394.187 429.598 394.187 429.641C394.187 429.857 394.138 430.066 394.119 430.257C393.307 438.223 392.922 446.227 392.968 454.234C392.968 454.634 392.968 455.034 392.968 455.466C392.968 457.341 392.989 459.242 393.03 461.167C393.03 461.426 393.03 461.685 393.03 461.943C393.153 468.162 393.43 474.584 393.818 481.099C394.353 490.132 395.117 499.331 395.997 508.358C396.373 512.219 396.779 516.055 397.228 519.829C397.278 520.273 397.327 520.728 397.376 521.165C397.893 525.765 398.429 530.272 398.977 534.644L399.014 534.927C401.107 552.291 403.422 567.451 405.029 577.401Z" fill="#E5E5E5"/>
<path opacity="0.1" d="M394.138 429.53C394.138 429.573 394.138 429.623 394.138 429.666C393.27 437.846 392.859 446.069 392.906 454.296C392.906 454.696 392.906 455.096 392.906 455.527C384.804 464.933 373.93 471.529 361.847 474.37C349.763 477.211 337.09 476.15 325.646 471.339C325.646 470.927 325.646 470.527 325.646 470.108C325.212 455.853 322.83 441.724 318.566 428.114C317.255 423.982 316.294 421.661 316.294 421.661C316.294 421.661 318.689 420.362 322.642 418.447C337.036 411.489 372.159 396.465 387.316 407.253C392.617 411.033 395.474 417.973 394.138 429.53Z" fill="black"/>
<path d="M348.431 474.677C380.842 474.677 407.116 448.399 407.116 415.984C407.116 383.569 380.842 357.291 348.431 357.291C316.021 357.291 289.747 383.569 289.747 415.984C289.747 448.399 316.021 474.677 348.431 474.677Z" fill="#E5E5E5"/>
<path opacity="0.1" d="M351.54 577.001H226.347C226.347 577.001 231.974 549.674 232.774 544.047C233.211 540.968 238.315 529.884 246.583 520.26C257.203 511.787 270.357 507.12 283.941 507.003C307.884 506.646 314.854 514.891 316.744 520.987C317.404 523.031 317.573 525.202 317.236 527.323L321.767 533.887L351.54 577.001Z" fill="black"/>
<path d="M233.612 544.623L233.612 544.622C233.698 544.016 234.046 542.867 234.709 541.261C235.359 539.686 236.276 537.751 237.441 535.604C239.756 531.336 243.023 526.272 247.055 521.564C257.44 513.312 270.286 508.767 283.552 508.654L283.56 508.653C295.402 508.477 302.889 510.432 307.602 513.067C312.28 515.681 314.295 519.001 315.149 521.757L315.152 521.764L315.154 521.771C315.754 523.628 315.907 525.6 315.601 527.527L315.523 528.021L315.807 528.433L320.338 534.997L320.338 534.997L348.758 576.151H227.479C227.629 575.418 227.828 574.445 228.063 573.293C228.603 570.643 229.332 567.049 230.086 563.28C231.589 555.764 233.205 547.481 233.612 544.623Z" fill="#E5E5E5" stroke="black" stroke-width="2.5"/>
<path opacity="0.1" d="M487.804 577.001H356.632C362.887 563.689 379.282 528.197 380.193 519.989C380.544 516.812 383.93 513.832 388.412 511.301C389.828 510.491 391.285 509.755 392.777 509.097L393.048 508.974C393.869 508.613 394.7 508.278 395.541 507.97C406.888 503.816 419.355 503.914 430.634 508.247C441.402 512.342 455.26 517.859 466.046 523.025L466.132 523.068C468.903 524.398 471.483 525.697 473.754 526.947C478.298 529.441 481.616 531.719 482.891 533.542C483.475 534.379 484.122 538.154 484.83 544.01C485.772 551.928 486.8 563.677 487.804 577.001Z" fill="black"/>
<path d="M486.856 576.151H358.999C362.235 569.237 367.38 558.091 371.964 547.477C374.465 541.688 376.804 536.045 378.577 531.328C380.33 526.666 381.588 522.762 381.836 520.528L381.836 520.527C381.968 519.333 382.69 518.042 384.04 516.685C385.38 515.337 387.24 514.025 389.427 512.79L389.433 512.786C390.811 511.997 392.229 511.281 393.682 510.641L393.688 510.638L393.695 510.635L393.959 510.515C394.753 510.166 395.557 509.842 396.371 509.544L396.371 509.544C407.434 505.494 419.589 505.59 430.586 509.814L430.59 509.816C441.348 513.907 455.161 519.407 465.897 524.548L465.973 524.586L465.982 524.591L465.992 524.595C468.751 525.92 471.308 527.208 473.552 528.443L473.553 528.443C475.801 529.677 477.721 530.844 479.223 531.915C480.749 533.001 481.755 533.927 482.266 534.659L483.291 533.942M486.856 576.151L380.593 520.39C380.944 517.212 384.33 514.232 388.812 511.702C390.228 510.891 391.685 510.155 393.177 509.497L393.448 509.374C394.269 509.013 395.1 508.678 395.942 508.37C407.288 504.216 419.755 504.315 431.034 508.647C441.802 512.742 455.66 518.259 466.447 523.425L466.533 523.468C469.303 524.798 471.883 526.098 474.154 527.348C478.698 529.841 482.016 532.12 483.291 533.942M486.856 576.151C485.885 563.391 484.902 552.181 483.989 544.558M486.856 576.151L483.989 544.558M483.291 533.942C483.876 534.78 484.522 538.554 485.23 544.41M483.291 533.942L482.266 534.658C482.265 534.656 482.264 534.655 482.264 534.655C482.264 534.656 482.294 534.706 482.347 534.842C482.402 534.984 482.465 535.181 482.535 535.437C482.676 535.951 482.826 536.644 482.984 537.517C483.301 539.261 483.636 541.639 483.989 544.558M485.23 544.41L483.989 544.558M485.23 544.41L483.989 544.56C483.989 544.559 483.989 544.559 483.989 544.558M485.23 544.41L483.989 544.558" fill="#E5E5E5" stroke="black" stroke-width="2.5"/>
<path opacity="0.1" d="M467.093 513.025C467.093 514.918 467.042 516.812 466.939 518.709C466.882 519.632 466.812 520.556 466.73 521.48C466.674 522.145 466.607 522.803 466.539 523.462L466.453 524.226C465.449 533.179 463.596 542.082 463.374 551.078C463.374 551.503 463.374 551.928 463.374 552.353C463.331 560.801 464.698 569.12 466.551 577.401H391.01C390.887 575.868 390.825 574.323 390.844 572.802C390.844 571.429 390.93 570.056 391.072 568.676C392.235 557.34 398.029 546.731 398.903 535.469L398.94 534.952C398.995 534.108 399.026 533.259 399.014 532.409C399.014 532.335 399.014 532.261 399.014 532.181C398.918 528.458 398.345 524.762 397.308 521.184C397.259 521.005 397.21 520.827 397.161 520.648C396.105 517.1 394.872 513.606 393.467 510.181L393.196 509.497C391.146 504.374 388.991 499.294 387.532 494.202C386.372 490.41 385.772 486.468 385.752 482.503C385.752 481.795 385.796 481.087 385.851 480.379C385.9 479.8 385.968 479.221 386.054 478.636C386.189 477.722 386.37 476.816 386.596 475.921C387.827 471.069 390.456 466.518 392.974 462.011C395.775 456.993 398.447 452.03 398.928 446.753C398.988 446.085 399.011 445.415 398.995 444.745C398.976 443.883 398.894 443.022 398.749 442.172C398.103 438.428 396.176 435.06 394.593 431.605C394.433 431.254 394.273 430.903 394.119 430.546C394.119 430.491 394.07 430.436 394.052 430.38C390.973 423.268 389.188 415.682 387.31 408.133C387.23 407.807 387.15 407.481 387.064 407.16C386.602 405.313 386.128 403.466 385.623 401.619C382.865 391.545 378.937 381.367 371.463 374.095C363.989 366.823 352.07 363.141 342.712 367.771C334.616 371.804 330.233 380.831 328.256 389.649C326.28 398.466 326.12 407.671 323.553 416.341C323.368 416.973 323.163 417.603 322.937 418.231C322.826 418.552 322.715 418.847 322.605 419.198C321.503 422.338 320.142 425.448 318.677 428.539L318.523 428.865C313.844 438.822 308.408 448.606 308.235 458.612V458.741C308.235 459.012 308.235 459.277 308.235 459.548C308.267 461.926 308.628 464.288 309.306 466.567C310.538 470.668 312.766 474.246 315.365 477.651C315.878 478.32 316.403 478.983 316.941 479.64C319.526 482.817 322.334 485.896 324.79 489.171L324.87 489.276C326.738 491.695 328.315 494.326 329.568 497.114C331.053 500.607 331.829 504.36 331.85 508.155C331.871 511.95 331.137 515.711 329.691 519.22C328.994 520.841 328.194 522.417 327.296 523.936C325.714 526.67 323.971 529.33 322.598 532.175C322.137 533.129 321.724 534.102 321.367 535.087C318.289 543.018 317.624 551.793 315.112 559.976C313.167 566.259 310.139 572.154 306.167 577.395H226.131C227.061 572.845 231.672 550.302 232.399 545.241C232.836 542.162 237.94 531.079 246.208 521.455C245.512 522.003 244.841 522.557 244.195 523.111C238.981 527.555 234.463 532.757 230.792 538.542C230.97 537.988 231.155 537.427 231.34 536.873C232.466 533.511 233.685 530.18 234.923 526.892C238.506 517.422 242.495 507.761 249.637 500.581C253.67 496.53 258.576 493.408 262.418 489.178C269.19 481.733 271.992 471.419 271.912 461.309C271.912 460.262 271.868 459.222 271.801 458.181C271.068 447.098 267.282 436.488 263.182 426.162C260.977 420.621 258.638 414.796 258.743 408.921C258.749 408.097 258.809 407.275 258.921 406.458C260.614 394.285 272.927 386.995 280.321 377.174C291.317 362.562 292.117 340.845 306.542 329.626C317.624 321.005 333.015 321.535 347.009 322.471C360.024 323.345 371.771 325.039 384.687 326.849C397.604 328.659 410.711 332.058 421.073 340.02C427.765 345.155 432.986 351.959 437.622 359.009C443.827 368.455 449.251 378.885 449.996 390.16C450.052 390.966 450.082 391.767 450.082 392.561C450.212 405.738 444.492 418.509 443.735 431.741C443.704 432.357 443.68 432.972 443.673 433.588C443.67 433.621 443.67 433.654 443.673 433.687C443.538 445.158 447.94 457.202 453.93 466.937C462.441 480.81 466.993 496.749 467.093 513.025V513.025Z" fill="black"/>
<path d="M467.093 513.025C467.093 514.651 467.031 516.283 466.939 517.902C466.882 518.826 466.812 519.749 466.73 520.673C466.648 521.597 466.555 522.512 466.453 523.419C465.449 532.372 463.596 541.276 463.374 550.272C463.374 550.961 463.374 551.657 463.374 552.347C463.417 560.789 464.846 569.114 466.73 577.395H391.078C390.936 575.862 390.85 574.317 390.838 572.796C390.822 571.151 390.898 569.506 391.066 567.87C392.229 556.534 398.022 545.925 398.897 534.663C398.958 533.837 399.001 533.012 399.007 532.2C399.007 532.009 399.007 531.812 399.007 531.621C398.929 527.635 398.309 523.679 397.167 519.86C396.111 516.311 394.878 512.818 393.473 509.392C391.343 504.042 389.058 498.728 387.532 493.383C386.456 489.839 385.857 486.168 385.752 482.466C385.735 481.488 385.768 480.51 385.851 479.535C385.9 478.956 385.968 478.377 386.054 477.792C386.189 476.879 386.369 475.972 386.596 475.077C387.827 470.225 390.456 465.675 392.974 461.167C395.781 456.143 398.466 451.168 398.94 445.885C398.977 445.484 398.995 445.078 399.007 444.653C399.037 443.521 398.954 442.389 398.761 441.273C398.115 437.529 396.188 434.161 394.606 430.706C394.445 430.355 394.285 430.004 394.131 429.647C391.01 422.492 389.206 414.869 387.322 407.234C386.781 405.055 386.226 402.875 385.642 400.714C382.883 390.64 378.956 380.462 371.481 373.19C364.007 365.918 352.107 362.31 342.755 366.965C334.659 370.998 330.276 380.025 328.299 388.842C326.323 397.659 326.163 406.865 323.596 415.535C323.313 416.489 322.98 417.443 322.666 418.392C321.521 421.637 320.093 424.857 318.59 428.059C313.782 438.274 308.186 448.323 308.303 458.612V458.741C308.335 461.119 308.695 463.482 309.374 465.761C310.605 469.862 312.834 473.439 315.432 476.844C315.945 477.513 316.471 478.176 317.008 478.833C319.625 482.047 322.463 485.157 324.938 488.469C326.806 490.889 328.382 493.52 329.635 496.308C331.121 499.8 331.896 503.553 331.917 507.348C331.939 511.143 331.205 514.904 329.758 518.413C329.061 520.035 328.261 521.61 327.364 523.13C325.781 525.864 324.039 528.524 322.666 531.368C322.204 532.323 321.792 533.296 321.435 534.281C318.357 542.212 317.692 550.986 315.18 559.169C313.132 565.775 309.891 571.951 305.619 577.389H225.947C225.947 577.389 231.574 550.062 232.374 544.434C232.774 541.621 237.09 532.12 244.17 523.111C244.786 522.286 245.487 521.461 246.183 520.648C240.394 525.225 235.376 530.701 231.321 536.867L230.773 537.729C232.054 533.794 233.464 529.909 234.91 526.079C238.494 516.609 242.483 506.948 249.625 499.768C253.657 495.717 258.564 492.595 262.406 488.365C268.981 481.117 271.825 471.124 271.899 461.272C271.899 459.954 271.899 458.643 271.788 457.337C271.056 446.254 267.269 435.645 263.169 425.319C261.07 420.011 258.86 414.482 258.73 408.854C258.702 407.769 258.761 406.684 258.909 405.609C260.608 393.503 272.921 386.244 280.315 376.392C291.311 361.78 292.111 340.063 306.536 328.844C317.618 320.223 333.009 320.753 347.003 321.689C360.018 322.563 371.765 324.257 384.681 326.067C397.598 327.877 410.723 331.27 421.073 339.207C427.765 344.373 432.986 351.146 437.621 358.203C443.827 367.648 449.251 378.079 449.996 389.353C450.07 390.424 450.099 391.494 450.082 392.561C449.978 405.449 444.474 417.973 443.735 430.94C443.686 431.815 443.661 432.683 443.673 433.564C443.669 433.596 443.669 433.629 443.673 433.662C443.747 444.893 448.081 456.605 453.93 466.093C462.59 480.211 467.148 496.462 467.093 513.025V513.025Z" fill="black"/>
</g>
<defs>
<clipPath id="clip0">
<rect width="684" height="363" fill="white" transform="translate(33 254)"/>
</clipPath>
</defs>
</svg>
