<svg id="Layer_1" xmlns="http://www.w3.org/2000/svg" viewBox="0 0 150 80" enable-background="new 0 0 150 80">
    <style>
      .st3,.st4{fill-rule:evenodd;clip-rule:evenodd}.st4{fill:#020000}
    </style>
    <path class="st0" d="M72.6 9.9h.5v-3h1.1l.1-.4h-2.8v.4h1.2zM75.1 7.3l1.2 1.8h.3l1.2-1.8v2.6l.5-.1V6.5h-.4l-1.3 2-1.3-2h-.5v3.3h.4z"></path>
    <defs>
      <filter id="Adobe_OpacityMaskFilter" filterUnits="userSpaceOnUse" x="1" y=".5" width="79.9" height="79.5">
        <feColorMatrix values="1 0 0 0 0 0 1 0 0 0 0 0 1 0 0 0 0 0 1 0"></feColorMatrix>
      </filter>
    </defs>
    <mask maskUnits="userSpaceOnUse" x="1" y=".5" width="79.9" height="79.5" id="d">
      <g filter="url(#Adobe_OpacityMaskFilter)">
        <path id="c" d="M1 .5h79.7V80H1V.5z" fill="#fff"></path>
      </g>
    </mask>
    <path class="st0" d="M79.2 42.8c-.4.6-.9.9-1.6 1h-.5c-1.2 0-2.3-.6-2.9-1.5l-.1-.1c-.8-1-1.9-1.7-3.2-2 1.3-.3 2.4-1 3.2-2l.1-.2c.7-.9 1.7-1.4 2.9-1.4 2.6 0 2.8 2.8 2.8 3.6 0 1.1-.2 2-.7 2.6zm-2.8 5.1c2.5.8 1.8 3.5 1.6 4.3-.3 1-.8 1.8-1.5 2.3s-1.5.6-2.3.3c-1.1-.4-2-1.2-2.3-2.3v-.2c-.4-1.2-1.2-2.2-2.4-2.9.5.1 1 0 1.4 0 .8-.1 1.5-.4 2.2-.9l.2-.1c.9-.6 2-.8 3.1-.5zm-5.8 7.4c-.5 1-1 1.7-1.8 2h-.1c-.2.1-.4.1-.6.1-.9.1-1.9 0-2.7-.4-2.1-1.1-3-3.5-2-5.4 1-1.9 3.5-2.6 5.6-1.6 1.1.5 1.9 1.4 2.2 2.5l.1.2c0 .9-.2 1.6-.7 2.6zm1.7 3.2c2.1 1.5.7 3.9.2 4.6-.6.9-1.3 1.4-2.1 1.7-.1 0-.3.1-.4.1-.7.1-1.3-.1-1.9-.5-.9-.7-1.5-1.8-1.5-2.9v-.2c0-1.3-.5-2.5-1.4-3.5 1.2.5 2.5.6 3.7.2l.2-.1c1.1-.2 2.3 0 3.2.6zm-6.6 2.8v.2c0 .8-.5 1.5-1.3 2.3-.7.7-1.3 1.2-2 1.3H62c-1.1 0-2.2-.5-3.1-1.3-1.7-1.7-1.8-4.2-.2-5.8 1.5-1.5 4.1-1.4 5.8.2.8.8 1.2 1.9 1.2 3.1zm-.6 6c1.5 2.1-.6 3.9-1.3 4.4-.7.5-1.4.8-2.1.9h-.5c-.8 0-1.5-.4-2.1-1.1-.7-.9-.9-2.2-.5-3.3l.1-.2c.4-1.2.3-2.5-.2-3.7 1 .9 2.2 1.4 3.5 1.4h.2c1.2.2 2.2.7 2.9 1.6zm-7.1.6l-.1.2c-.3.8-1 1.3-1.9 1.8-.6.3-1.1.5-1.6.6-.3.1-.7 0-1-.1h-.1c-1.1-.4-2-1.1-2.5-2.2-1.1-2.1-.4-4.6 1.6-5.6 1.9-1 4.4-.1 5.4 2 .4 1 .5 2.2.2 3.3zm-2.5 5.6c.8 2.5-1.8 3.6-2.6 3.8-.3.1-.6.2-.9.2-.6.1-1.2.1-1.8-.1-.8-.3-1.4-.8-1.6-1.7-.4-1.1-.2-2.3.5-3.3l.1-.1c.7-1 1.1-2.3.9-3.6.6 1.1 1.7 2 2.9 2.4l.2.1c1.1.3 2 1.2 2.3 2.3zm-9.4-.4c-1.1.2-1.9.2-2.7-.3l-.1-.1c-.9-.7-1.5-1.7-1.7-2.9-.4-2.3 1.1-4.5 3.2-4.8 2.1-.3 4.2 1.3 4.5 3.6.2 1.2-.1 2.3-.7 3.3l-.1.1c-.5.6-1.3.9-2.4 1.1zm-4.3 6c-.4.1-.7.1-.9.1-1.1 0-2-.2-2.6-.7-.7-.5-1-1.2-1-2.1 0-1.2.6-2.3 1.5-2.9l.1-.1c1-.8 1.7-1.9 2-3.1.3 1.3 1 2.4 2 3.2l.2.1c.9.7 1.4 1.7 1.4 2.9 0 1.8-1.6 2.4-2.7 2.6zm-6.2-6c-1.1-.2-1.9-.4-2.4-1.1 0 0 0-.1-.1-.1-.7-.9-.9-2.1-.7-3.3.4-2.3 2.4-3.9 4.5-3.6s3.6 2.5 3.2 4.8c-.2 1.2-.8 2.2-1.7 2.9l-.1.1c-.3.2-.6.3-.9.4-.6 0-1.1 0-1.8-.1zm-2.5 2.6c-.4 1.2-1.2 1.7-2.1 1.8-.9.1-1.8-.1-2.3-.2-1-.3-1.8-.8-2.3-1.5s-.6-1.5-.3-2.3c.4-1.1 1.2-2 2.3-2.3l.2-.1c1.2-.4 2.2-1.2 2.9-2.4-.1 1.3.2 2.6.9 3.6l.1.2c.8 1 1 2.1.6 3.2zm-7.4-5.8c-1-.5-1.7-1-2-1.8V68c-.3-1.1-.2-2.3.3-3.3 1.1-2.1 3.5-3 5.4-2s2.6 3.5 1.6 5.6c-.5 1.1-1.4 1.8-2.5 2.2 0 0-.3.1-.4.1-.8 0-1.5-.3-2.4-.7zM23 68.2l.1.2c.3 1.1.1 2.3-.5 3.2-1.5 2.1-3.9.7-4.6.2-.9-.6-1.4-1.3-1.7-2.1-.3-.8-.1-1.6.4-2.3.7-.9 1.8-1.5 2.9-1.5h.2c.3 0 .5 0 .8-.1 1-.2 1.9-.6 2.7-1.3-.6 1.2-.7 2.5-.3 3.7zm-5.7-4.5c-.8-.8-1.3-1.5-1.3-2.3v-.1c0-1.1.5-2.2 1.3-3.1 1.7-1.7 4.3-1.8 5.8-.2 1.5 1.5 1.4 4.1-.2 5.8-.7.7-1.5 1.1-2.4 1.3-.3-.1-.5-.1-.8-.1h-.2c-.8 0-1.4-.5-2.2-1.3zm-2.1-2.4v.2c0 1.1-.6 2.2-1.5 2.9-.4.3-.8.5-1.2.5-1.6.3-2.8-1.2-3.2-1.8-.6-.9-1-1.7-1-2.5s.4-1.5 1.1-2.1c.9-.7 2.2-.9 3.3-.5l.2.1c1.2.4 2.5.3 3.7-.2-.9.9-1.4 2.1-1.4 3.4zm-4-6c-.5-1-.8-1.8-.5-2.6v-.1c.4-1.1 1.1-2 2.2-2.5 2.1-1.1 4.6-.4 5.6 1.6 1 1.9.1 4.3-2 5.4-.4.2-.9.4-1.4.4-.7.1-1.3.1-2-.1H13c-.9-.4-1.3-1.1-1.8-2.1zm-1.3-2.9l-.1.2c-.4 1.1-1.2 1.9-2.3 2.3-.2 0-.3 0-.5.1-2.1.3-3.1-1.9-3.3-2.7-.3-1-.4-1.9-.1-2.7s.8-1.4 1.7-1.6c1.1-.4 2.3-.2 3.3.5l.1.1c1 .7 2.3 1.1 3.6.9-1.1.6-2 1.6-2.4 2.9zm-2.4-10c-.6.8-1.4 1.2-2.3 1.4h-.6c-2.6 0-2.8-2.8-2.8-3.6 0-1.1.2-2 .7-2.6.5-.7 1.2-1 2.1-1 1.2 0 2.3.6 2.9 1.5l.1.1c.8 1 1.9 1.7 3.2 2-1.3.3-2.4 1-3.2 2 0 .1-.1.2-.1.2zM7 32.6c-.6.1-1.1 0-1.7-.1-2.5-.8-1.8-3.5-1.6-4.3.3-1 .8-1.8 1.5-2.3s1.5-.6 2.3-.3c1.1.4 2 1.2 2.3 2.3l.1.2c.4 1.2 1.2 2.2 2.4 2.9-1.3-.1-2.6.2-3.6.9l-.2.1c-.5.4-1 .6-1.5.6zm4.2-7.5c.5-1 1-1.7 1.8-2h.1c1.1-.3 2.3-.2 3.3.3 2.1 1.1 3 3.5 2 5.4-.6 1.1-1.6 1.8-2.8 2-.9.1-1.8 0-2.7-.4-1.1-.5-1.9-1.4-2.2-2.5l-.1-.2c-.2-.8 0-1.6.6-2.6zm-1.8-3.2c-2.1-1.5-.7-3.9-.2-4.6.6-.9 1.3-1.4 2.1-1.7.8-.3 1.6-.1 2.3.4.9.7 1.5 1.8 1.5 2.9v.2c0 1.3.5 2.5 1.4 3.5-1.2-.5-2.5-.6-3.7-.2 0 0-.5.2-.7.2-.9.1-1.9-.1-2.7-.7zm6.6-2.7V19c0-.8.5-1.5 1.3-2.3.8-.8 1.5-1.3 2.3-1.3h.1c1.1 0 2.2.5 3.1 1.3 1.7 1.7 1.8 4.2.2 5.8-1.5 1.5-4.1 1.4-5.8-.2-.8-.9-1.2-2-1.2-3.1zm.6-6.1c-1.6-2.1.6-3.9 1.3-4.4.9-.6 1.7-1 2.5-1s1.5.4 2.1 1.1c.7.9.9 2.2.5 3.3l-.1.2c-.4 1.2-.3 2.5.2 3.7-1-.9-2.2-1.4-3.5-1.4h-.2c-1.1 0-2.1-.6-2.8-1.5zm7.1-.6l.1-.2c.3-.8 1-1.3 2-1.8s1.8-.8 2.6-.5h.1c1.1.4 2 1.1 2.5 2.2 1.1 2.1.4 4.6-1.6 5.6-1.9 1-4.4.1-5.4-2-.5-1-.6-2.2-.3-3.3zM26.2 7c-.8-2.5 1.8-3.6 2.6-3.8 1-.3 1.9-.4 2.7-.1.8.3 1.4.8 1.6 1.7.4 1.1.2 2.3-.5 3.3l-.1.1c-.7 1-1.1 2.3-.9 3.6-.6-1.1-1.7-2-2.9-2.4l-.2-.1c-1.1-.4-1.9-1.2-2.3-2.3zm9.4.4c1.1-.2 1.9-.2 2.7.3 0 0 .1 0 .1.1.9.7 1.5 1.7 1.7 2.9.4 2.3-1.1 4.5-3.2 4.8-2.1.3-4.2-1.3-4.5-3.6-.2-1.2.1-2.3.7-3.3l.1-.1c.6-.7 1.3-.9 2.4-1.1zm5.3-6.1c1.1 0 2 .2 2.6.7.7.5 1 1.2 1 2.1 0 1.2-.6 2.3-1.5 2.9l-.2.1c-1 .8-1.7 1.9-2 3.1-.3-1.3-1-2.4-2-3.2l-.2-.1c-.9-.7-1.4-1.7-1.4-2.9 0-2.5 2.8-2.7 3.7-2.7zm5.2 6.1c1.1.2 1.9.4 2.4 1.1l.1.1c.7.9.9 2.1.7 3.3-.4 2.3-2.4 3.9-4.5 3.6-2.1-.3-3.6-2.5-3.2-4.8.2-1.2.8-2.2 1.7-2.9l.1-.1c.7-.5 1.6-.5 2.7-.3zm2.5-2.7c.8-2.5 3.5-1.8 4.3-1.6 1 .3 1.8.8 2.3 1.5s.6 1.5.3 2.3c-.4 1.1-1.2 2-2.3 2.3l-.2.1c-1.2.4-2.2 1.2-2.9 2.4.1-1.3-.2-2.6-.9-3.6l-.1-.2c-.7-.9-.9-2.1-.5-3.2zm7.4 5.9c1 .5 1.7 1 2 1.8v.1c.3 1.1.2 2.3-.3 3.3-1.1 2.1-3.5 3-5.4 2s-2.6-3.5-1.6-5.6c.5-1.1 1.4-1.8 2.5-2.2l.2-.1c.8-.1 1.6.2 2.6.7zm2.7 1.7l-.1-.2c-.3-1.1-.1-2.3.5-3.2 1.5-2.1 3.9-.7 4.6-.2.9.6 1.4 1.3 1.7 2.1s.1 1.6-.4 2.3c-.7.9-1.8 1.5-2.9 1.5h-.2c-1.3 0-2.5.5-3.5 1.4.6-1.2.7-2.5.3-3.7zm5.7 4.4c.8.8 1.3 1.5 1.3 2.3v.1c0 1.1-.5 2.2-1.3 3.1-.7.7-1.6 1.1-2.5 1.3-1.2.2-2.4-.1-3.3-1-1.5-1.5-1.4-4.1.2-5.8.8-.8 1.9-1.3 3.1-1.3h.2c.9 0 1.5.5 2.3 1.3zm2.1 2.4v-.2c0-1.1.6-2.2 1.5-2.9 2.1-1.5 3.9.6 4.4 1.3.6.9 1 1.7 1 2.5s-.4 1.5-1.1 2.1c-.9.7-2.2.9-3.3.5l-.2-.1c-1.2-.4-2.5-.3-3.7.2.9-.8 1.4-2.1 1.4-3.4zm4 6c.5 1 .8 1.8.5 2.6v.1c-.4 1.1-1.1 2-2.2 2.5-.4.2-.9.4-1.4.4-1.7.3-3.4-.5-4.2-2-1-1.9-.1-4.3 2-5.4 1.1-.5 2.3-.6 3.3-.3l.2.1c.9.4 1.3 1 1.8 2zm0 14.4c-2.3.4-4.5-1.1-4.8-3.2-.3-2.1 1.3-4.2 3.6-4.5 1.2-.2 2.3.1 3.3.7l.1.1c.7.5.9 1.3 1.1 2.4.2 1.1.2 1.9-.3 2.7 0 0 0 .1-.1.1-.7.9-1.7 1.5-2.9 1.7zm-4.8 4.6c.3-2.1 2.5-3.6 4.8-3.2 1.2.2 2.2.8 2.9 1.7l.1.1c.5.7.5 1.5.3 2.6s-.4 1.9-1.1 2.4l-.1.1c-.5.4-1.2.6-1.8.7-.5.1-.9.1-1.4 0-2.4-.2-4-2.2-3.7-4.4zm-3.9 3.6s-.1 0 0 0L58 45.8h-.1.1l4.2.7c.8.1 1.5-.1 2-.6l.6-.6c.2 1.5 1.1 2.8 2.4 3.6-1.5-.2-3.1.4-4.1 1.4l-.1-.9c0-.7-.5-1.3-1.2-1.7zm.7 3.5c-.1.2-.2.3-.4.4l-1.1.6c-.1.1-.2.1-.4.1-.3.1-.7 0-1.1-.2-.5-.2-.8-.7-.9-1.1l-.2-1.2c-.1-.4.1-.7.5-.9l1.1-.5c.4-.2.9-.2 1.3 0l.1.1c.5.2.8.7.9 1.1l.2 1.2c.1.1.1.3 0 .4zm-6.2 6.6c-.4.1-.9-.1-1.3-.5s-.6-.9-.5-1.3l.2-1.2c.1-.4.3-.7.7-.7l1.2-.2c.4-.1.9.1 1.2.4l.1.1c.4.4.6.9.5 1.3l-.2 1.2c0 .2-.1.4-.2.5-.1.1-.3.2-.5.2l-1.2.2zm-6.2 3.9c-.4-.1-.9-.4-1.1-.9-.2-.5-.3-1-.1-1.4l.6-1.1c.2-.4.5-.5.9-.5l1.2.2c.4.1.8.4 1 .8l.1.1c.2.5.3 1 .1 1.4l-.6 1.1c-.1.2-.2.3-.4.4-.1 0-.2.1-.2.1h-.3l-1.2-.2zM43 63.5c-.4-.2-.7-.7-.8-1.2s.1-1.1.4-1.4l.9-.9c.3-.3.7-.3 1-.2l1.1.6c.4.2.6.6.7 1.1v.1c.1.5-.1 1.1-.4 1.4l-.9.9c-.1.1-.3.2-.5.3-.2 0-.4 0-.5-.1.1 0-1-.6-1-.6zm-4 .7c.6-.3 1-1 1.2-1.7v-.1l.7-4.1v-.1.1l.7 4.2c.1.8.6 1.4 1.2 1.8l.8.4c-1.3.6-2.3 1.9-2.6 3.4-.3-1.5-1.3-2.8-2.6-3.4l.6-.5zm-3.3-1.1c-.3-.3-.4-.8-.4-1.4.1-.5.4-1 .8-1.2l1.1-.6c.4-.2.7-.1 1 .2l.9.9c.3.3.4.8.4 1.2v.1c-.1.5-.4 1-.8 1.2l-1.1.6c-.1 0-.2.1-.3.1h-.2c-.2 0-.3-.1-.5-.3l-.9-.8zM29 58.9c.3-.5.7-.8 1.1-.9l1.2-.2c.4-.1.7.1.9.5l.5 1.1c.2.4.2.9 0 1.3l-.1.1c-.3.5-.7.8-1.1.9l-1.2.2c-.2 0-.4 0-.5-.1-.2-.1-.3-.2-.4-.4l-.5-1.1c-.2-.3-.2-.9.1-1.4zm-5.2-4.6c.4-.4.9-.6 1.3-.5l1.2.2c.4.1.7.3.7.7l.2 1.2c.1.4-.1.9-.4 1.2l-.1.1c-.3.3-.6.5-1 .5h-.4l-1.2-.2c-.2 0-.4-.1-.5-.2-.1-.1-.2-.3-.2-.5l-.2-1.2c0-.4.2-.9.6-1.3zm-4.7-3.6l.2-1.2c.1-.4.4-.9.9-1.1.5-.2 1-.3 1.4-.1l1.1.5c.4.2.5.5.5.9L23 51c-.1.4-.4.8-.8 1l-.1.1c-.2.1-.4.2-.6.2-.3 0-.6 0-.9-.1l-1.1-.6c-.2-.1-.3-.2-.4-.4v-.5zm-2.3-5.4l.6.6c.5.5 1.3.7 2 .6h.1l4.1-.6-3.8 1.9c-.7.4-1.2 1-1.3 1.6l-.1.9c-1-1.1-2.5-1.6-4.1-1.4 1.4-.9 2.3-2.2 2.5-3.6zm-.8-1.1c.3 2.1-1.3 4.2-3.6 4.5-1.2.2-2.3-.1-3.3-.7l-.1-.1c-.7-.5-.9-1.3-1.1-2.4-.2-1.1-.2-1.9.3-2.7l.1-.1c.7-1 1.7-1.6 2.9-1.7 2.3-.4 4.5 1 4.8 3.2zm3.9-11.5s.1 0 .1.1l3.7 1.9-4.2-.7c-.8-.1-1.5.1-2 .6l-.6.6c-.2-1.5-1.1-2.8-2.4-3.6h1.4c1-.2 2-.6 2.7-1.4l.1.9c0 .6.5 1.3 1.2 1.6zm-.7-3.5c.1-.2.2-.3.4-.4l1.1-.5c.4-.2.9-.2 1.4.1.5.2.8.7.9 1.1l.2 1.2c.1.4-.1.7-.5.9l-1.1.5c-.1.1-.2.1-.3.1-.3 0-.6 0-1-.1l-.1-.1c-.5-.2-.8-.7-.9-1.1l-.2-1.2c0-.2 0-.3.1-.5zm6.2-6.5c.4-.1.9.1 1.3.5s.6.9.5 1.3l-.2 1.2c-.1.4-.3.7-.7.7l-1.2.2c-.4.1-.9-.1-1.2-.4l-.1-.1c-.4-.4-.6-.9-.5-1.3l.2-1.2c0-.2.1-.4.2-.5s.3-.2.5-.2c0-.1 1.2-.2 1.2-.2zm6.2-4c.4.1.9.4 1.1.9s.3 1 .1 1.4l-.6 1.1c-.1.3-.3.4-.6.5h-.3l-1.2-.2c-.4-.1-.8-.4-1-.8l-.1-.1c-.2-.5-.3-1-.1-1.4l.6-1.1c.1-.2.2-.3.4-.4.2-.1.3-.1.5-.1l1.2.2zm7.1-1.8c.4.2.7.7.8 1.2s-.1 1.1-.4 1.4l-.9.9c-.1.1-.3.2-.5.3-.2 0-.4 0-.5-.1l-1.1-.6c-.4-.2-.6-.6-.7-1.1v-.1c-.1-.5.1-1.1.4-1.4l.9-.9c.1-.1.3-.2.5-.3.2 0 .4 0 .5.1l1 .6zm4-.6c-.6.3-1 1-1.2 1.7v.1l-.7 4.1-.6-4.2c-.1-.8-.6-1.4-1.2-1.8l-.8-.4c1.3-.6 2.3-1.9 2.6-3.4.3 1.5 1.3 2.8 2.6 3.4.1.1-.7.5-.7.5zm3.3 1.1c.3.3.4.8.4 1.4-.1.5-.4 1-.8 1.2l-1.1.6c-.1 0-.2.1-.3.1-.3 0-.5 0-.7-.3l-.9-.9c-.3-.3-.4-.8-.4-1.3v-.1c.1-.5.4-1 .8-1.2l1.1-.6c.2-.1.4-.1.5-.1s.3.1.5.3l.9.9zm6.7 4.1c-.3.5-.7.8-1.1.9l-1.2.2c-.4.1-.7-.1-.9-.5l-.5-1c-.2-.4-.2-.9 0-1.3l.1-.1c.3-.5.7-.8 1.1-.9l1.2-.2c.2 0 .4 0 .5.1.2.1.3.2.4.4l.5 1.1c.2.3.2.8-.1 1.3zm5.2 4.6c-.3.3-.6.5-1 .5h-.4l-1.2-.2c-.4-.1-.7-.3-.7-.7l-.2-1.2c-.1-.4.1-.9.4-1.2l.1-.1c.4-.4.9-.6 1.3-.5l1.2.2c.2 0 .4.1.5.2s.2.3.2.5l.2 1.2c.2.4 0 .9-.4 1.3zm4.7 3.7l-.2 1.2c-.1.4-.4.9-.9 1.1-.2.1-.4.2-.6.2-.3 0-.6 0-.9-.1l-1.1-.5c-.4-.2-.5-.5-.5-.9l.2-1.2c.1-.4.4-.8.8-1l.1-.1c.5-.2 1-.3 1.4-.1l1.1.6c.2.1.3.2.4.4.2 0 .2.2.2.4zm2.3 5.4l-.6-.6c-.5-.5-1.3-.7-2-.6h-.1l-4.2.7h-.1.1l3.8-1.9c.7-.4 1.2-1 1.3-1.6l.2-.9c1 1.1 2.5 1.6 4.1 1.4-1.4.7-2.3 2-2.5 3.5zm-1.8 5.7l-4.2-.7h-.1.1l4.2-.7c.8-.1 1.4-.6 1.7-1.2l.4-.8c.6 1.3 1.9 2.3 3.4 2.6-1.5.3-2.8 1.3-3.4 2.6l-.4-.8c-.2-.4-.9-.9-1.7-1zm-2.5 3c-.2-.4-.1-.7.2-1l.9-.9c.3-.3.8-.4 1.3-.4h.1c.5.1 1 .4 1.2.8l.6 1.1c.1.2.1.4.1.5 0 .2-.1.3-.3.5l-.9.9c-.2.2-.5.3-.8.4h-.6c-.5-.1-1-.4-1.2-.8-.1-.1-.6-1.1-.6-1.1zm-3.7.4l-.6-1.1c-.2-.4-.1-.7.2-1l.9-.9c.3-.3.9-.4 1.4-.4l2.5.4-.1.1-.9.9c-.3.3-.4.6-.5.9-.1.3 0 .7.2 1l.6 1.1c0 .1.1.1.1.2l-2.6-.5c-.5 0-1-.3-1.2-.7zm-5.4 8.6l.2-1.2c.1-.4.3-.7.7-.7l1.2-.2c.4-.1 1 .1 1.3.5l1.8 1.8h-.2l-1.2.2c-.4.1-.7.2-.9.4s-.4.5-.4.9l-.2 1.2v.2L52 54.2c-.4-.3-.6-.9-.5-1.3zm-1.2-1.8c-.5.1-1.1-.1-1.5-.5-.7-.7-.7-1.8 0-2.4.7-.7 1.8-.7 2.4 0 .7.7.7 1.8 0 2.4-.2.3-.5.5-.9.5zm-1.2.5c.6.3 1.2.3 1.8.1l-.2 1.2c-.1.4 0 .9.3 1.4-.3-.4-.8-.6-1.2-.7l-1.2-.2c.4-.6.6-1.2.5-1.8zM47 55.5l.5-1.1c.2-.4.5-.5.9-.5l1.2.2c.4.1.9.4 1.1.9l1.1 2.2h-.2l-1.2-.2c-.4-.1-.7 0-1 .1s-.5.4-.7.7l-.4 1.2c0 .1-.1.1-.1.2L47.1 57c-.3-.5-.3-1.1-.1-1.5zm-5 1.2l.9-.9c.3-.3.7-.3 1-.2l1.1.6c.4.2.7.7.8 1.2l.4 2.5-.1-.1-1.1-.6c-.3-.2-.7-.2-1-.2-.3.1-.6.2-.9.5l-.9.9-.1.1-.4-2.5c-.2-.5 0-1 .3-1.3zm-2.6-1.4c.6-.2 1.1-.6 1.4-1.1.3.5.8.9 1.4 1.1l-.8.8c-.3.3-.5.8-.6 1.3-.1-.5-.3-.9-.6-1.3l-.8-.8zM36 57.4c.1-.5.4-1 .8-1.2l1.1-.6c.4-.2.7-.1 1 .2l.9.9c.3.3.5.9.4 1.4l-.4 2.4-.1-.1-.9-.9c-.3-.3-.6-.4-.9-.5-.3 0-.7 0-1 .2l-1.1.6c-.1 0-.1.1-.2.1l.4-2.5zm-1.8-4.1c-.8-.4-1.2-1.5-.8-2.3s1.5-1.2 2.3-.7c.8.4 1.2 1.5.8 2.3-.3.5-.7.8-1.3.9-.3.1-.7 0-1-.2zm-3.3 1.8c.3-.5.7-.8 1.1-.9l1.2-.2c.4-.1.7.1.9.5l.5 1.1c.2.4.2.9-.1 1.4l-1.1 2.2c0-.1 0-.1-.1-.2l-.4-1c-.2-.3-.4-.6-.7-.7-.3-.1-.6-.2-1-.1l-1.2.1h-.2l1.1-2.2zm.1-2.3l-.2-1.2c.6.2 1.2.2 1.8-.1-.1.6.1 1.2.5 1.7l-1.2.2c-.4.1-.9.3-1.2.7.2-.4.3-.8.3-1.3zm-.6-4.6c.7-.7 1.8-.7 2.4 0 .7.7.7 1.8 0 2.4-.3.3-.6.4-.9.5-.5.1-1.1-.1-1.5-.5-.7-.6-.7-1.7 0-2.4zm-3.6 3.1c.4-.4.9-.6 1.3-.5l1.2.2c.4.1.7.3.7.7l.2 1.2c.1.4-.1 1-.5 1.3L28 56v-.2l-.2-1.2c-.1-.4-.2-.7-.4-.9-.2-.2-.5-.4-.9-.4l-1.2-.2h-.2c-.1 0 1.7-1.8 1.7-1.8zm-5.6-6l.6-1.1c.2-.3.2-.7.2-1-.1-.3-.2-.6-.5-.9l-.9-.9-.1-.1 2.5-.4c.5-.1 1.1.1 1.4.4l.9.9c.3.3.3.7.2 1l-.6 1.1c-.2.4-.7.7-1.2.8l-2.5.4v-.2zm-4.3-1.8l.6-1.1c.2-.4.7-.7 1.2-.8s1.1.1 1.4.4l.9.9c.3.3.3.7.2 1l-.6 1.1c-.2.4-.6.6-1.1.7h-.1c-.5.1-1.1-.1-1.4-.4l-.9-.9c-.1-.1-.2-.3-.3-.5 0-.1 0-.2.1-.4zm1.7-4h.1l4.1.7-4.2.7c-.8.1-1.4.6-1.8 1.2l-.4.8c-.6-1.3-1.9-2.3-3.4-2.6 1.5-.3 2.8-1.3 3.4-2.6l.4.8c.3.5 1 .9 1.8 1zm2.5-2.9c.2.4.1.7-.2 1l-.9.9c-.2.2-.5.3-.8.4h-.6c-.5-.1-1-.4-1.2-.8l-.6-1.1c-.1-.2-.1-.4-.1-.5 0-.2.1-.3.3-.5l.9-.9c.3-.3.8-.4 1.4-.4.5.1 1 .4 1.2.8.1 0 .6 1.1.6 1.1zm3.7-.4l.6 1.1c.2.4.1.7-.2 1l-.9.9c-.2.2-.5.3-.8.4h-.6l-2.5-.4.1-.1.9-.9c.3-.3.4-.6.5-.9.1-.3 0-.7-.2-1l-.6-1.1c0-.1-.1-.1-.1-.2l2.5.4c.6.1 1.1.4 1.3.8zm5.4-8.6l-.2 1.2c-.1.4-.3.7-.7.7l-1.2.2c-.4.1-1-.1-1.3-.5L25 27.4h.2l1.2-.2c.4-.1.7-.2.9-.4.2-.2.4-.5.4-.9l.2-1.2v-.2l1.8 1.8c.4.3.6.8.5 1.3zm2.6 2.2c.7.7.7 1.8 0 2.4-.3.3-.6.4-.9.5-.5.1-1.1-.1-1.5-.5-.7-.7-.7-1.8 0-2.4.7-.7 1.8-.7 2.4 0zm-.2-.9c-.6-.3-1.2-.3-1.8-.1l.2-1.2c.1-.4 0-.9-.3-1.4.3.4.8.6 1.2.7l1.2.2c-.4.6-.6 1.2-.5 1.8zm2.1-4l-.6 1.1c-.2.4-.5.5-.9.5l-1.2-.3c-.4-.1-.9-.4-1.1-.9l-1.1-2.2h.2l1.2.2h.5c.2 0 .3-.1.5-.1.3-.1.5-.4.7-.7l.6-1.1c0-.1 0-.1.1-.2l1.1 2.2c.2.6.2 1.1 0 1.5zm5-1.1l-.9.9c-.1.1-.3.2-.5.3-.2 0-.4 0-.5-.1l-1.1-.6c-.3-.3-.6-.8-.7-1.3l-.4-2.5.1.1 1.1.6c.3.2.7.2 1 .2.3-.1.6-.2.9-.5l.9-.9.1-.1.4 2.5c.1.5-.1 1-.4 1.4zm2.6 1.3c-.6.2-1.1.6-1.4 1.1-.3-.5-.8-.9-1.4-1.1l.8-.8c.3-.3.5-.8.6-1.3.1.5.3.9.6 1.3l.8.8zm3.4-2.1c-.1.5-.4 1-.8 1.2l-1.1.6c-.1 0-.2.1-.3.1-.3 0-.5 0-.7-.3l-.9-.9c-.3-.3-.4-.8-.4-1.4l.4-2.4.1.1.9.9c.3.3.6.4.9.5.3 0 .7 0 1-.2l1.1-.6c.1 0 .1-.1.2-.1l-.4 2.5zm1.9 4.1c.8.4 1.2 1.5.7 2.3-.3.5-.7.8-1.3.9-.3.1-.7 0-1-.2-.8-.4-1.2-1.5-.8-2.3.5-.8 1.5-1.1 2.4-.7zm3.2-1.8c-.3.5-.7.8-1.1.9l-1.2.2c-.4.1-.7-.1-.9-.5l-.6-1c-.2-.4-.2-.9.1-1.4l1.1-2.2c0 .1 0 .1.1.2l.5 1.1c.2.3.4.6.7.7s.6.2 1 .1l1.2-.2h.2c0-.1-1.1 2.1-1.1 2.1zm-.1 2.3l.2 1.2c-.6-.2-1.2-.2-1.8.1.1-.6-.1-1.2-.5-1.7l1.2-.2c.4-.1.9-.3 1.2-.7-.2.4-.3.9-.3 1.3zm.6 4.6c-.3.3-.6.4-.9.5-.5.1-1.1-.1-1.5-.5-.7-.7-.7-1.8 0-2.4.7-.7 1.8-.7 2.4 0 .7.7.7 1.8 0 2.4zm3.6-3.1c-.3.3-.6.5-1 .5h-.4l-1.2-.2c-.4-.1-.7-.3-.7-.7l-.2-1.2c-.1-.4.1-1 .5-1.3l1.8-1.7v.2l.2 1.2c.1.4.2.7.4.9.2.2.5.4.9.4l1.2.2h.2c.1 0-1.7 1.7-1.7 1.7zM56 41.6c-.2-.6-.6-1.1-1.1-1.4.5-.3.9-.8 1.1-1.4l.8.8c.3.3.8.5 1.3.6-.5.1-.9.3-1.3.6.1 0-.8.8-.8.8zm-.3 1.9l.5 1c.2.4.6.7 1 .9-.5-.1-1 0-1.4.2l-1.1.5c0-.6-.2-1.2-.6-1.7.7 0 1.3-.3 1.6-.9zm-4.8 1.9c.4-.8 1.5-1.2 2.3-.8s1.2 1.5.8 2.3c-.3.5-.7.8-1.3.9-.3.1-.7 0-1-.2-.9-.4-1.2-1.4-.8-2.2zm-1-.9c-.7-.2-1-.9-.8-1.6.1-.3.3-.6.6-.7.3-.2.6-.2 1-.1.7.2 1 .9.8 1.6 0 .1 0 .1-.1.2-.1.2-.3.4-.6.5-.1.1-.2.1-.4.1-.2.1-.4 0-.5 0zM48.1 47c-.6-.4-.7-1.2-.3-1.8.2-.3.5-.5.8-.5.3-.1.7 0 .9.2.6.4.7 1.2.3 1.8 0 .1-.1.1-.1.2-.2.2-.4.3-.7.4-.3 0-.6-.1-.9-.3zM46 50.3c.8-.4 1.9-.1 2.3.7.4.8.1 1.9-.7 2.3-.2.1-.3.1-.5.2-.7.1-1.5-.2-1.8-.9-.5-.8-.2-1.9.7-2.3zm-1.7.5h-.2c-.3 0-.5 0-.8-.1-.3-.2-.5-.4-.6-.7-.2-.7.1-1.4.8-1.6.3-.1.7-.1 1 .1.3.2.5.4.6.7.2.7-.1 1.4-.8 1.6zm-1.7.6c.9-.1 1.8.5 2 1.4.1.9-.5 1.8-1.4 2-.9.1-1.8-.5-2-1.4-.2-1 .5-1.9 1.4-2zM40 51c-.2-.2-.4-.6-.4-.9 0-.7.6-1.3 1.3-1.3.3 0 .7.1.9.4.2.2.4.6.4.9 0 .6-.5 1.2-1.1 1.3h-.4c-.3-.1-.6-.2-.7-.4zm-2.9 1.8c.1-.9 1-1.6 2-1.4.9.1 1.6 1 1.4 2-.1.8-.7 1.3-1.4 1.4h-.5c-1-.2-1.6-1.1-1.5-2zm-.5-3.6c.2-.7.9-1 1.6-.8.3.1.6.3.7.6.2.3.2.6.1 1-.2.5-.6.8-1 .9h-.6c-.1 0-.1 0-.2-.1-.2-.1-.4-.3-.6-.6-.1-.3-.1-.7 0-1zm11.1-1.7c.4.6.3 1.4-.3 1.8-.1 0-.1.1-.2.1-.1.1-.2.1-.4.1h-.4c-.3-.1-.6-.2-.8-.5-.4-.6-.3-1.4.3-1.8.3-.2.6-.3.9-.2.4 0 .7.2.9.5zm0-14.5c-.2.3-.5.5-.8.5s-.7 0-.9-.2c-.3-.2-.5-.5-.5-.8-.1-.3 0-.7.2-.9.4-.6 1.2-.7 1.8-.3.1 0 .1.1.2.1.2.2.3.4.4.7-.1.3-.2.6-.4.9zm2.4 1.6c-.1.3-.2.6-.5.8-.2.1-.4.2-.5.2-.5.1-.9-.1-1.2-.5-.2-.3-.3-.6-.2-.9.1-.3.2-.6.5-.8.6-.4 1.4-.3 1.8.3 0 .1.1.1.1.2v.7zm1.4 2.2v.2c0 .3 0 .5-.1.8-.2.3-.4.5-.7.6h-.2c-.6.1-1.2-.3-1.4-.9-.1-.3-.1-.7.1-1 .2-.3.4-.5.7-.6.6-.1 1.3.2 1.6.9zm.5 3.4v.2c0 .3-.2.5-.4.7s-.4.3-.7.4h-.2c-.7 0-1.3-.6-1.3-1.3 0-.3.1-.7.4-.9.2-.2.6-.4.9-.4.7.1 1.3.6 1.3 1.3zm2-6.7c.4.8.1 1.9-.8 2.3-.2.1-.3.1-.5.2-.7.1-1.5-.2-1.8-.9-.4-.8-.1-1.9.8-2.3.8-.4 1.9-.1 2.3.7zm.2 2.4c.4-.5.6-1.1.6-1.7l1.1.5c.4.2.9.3 1.4.2-.4.2-.8.5-1 .9l-.6 1.1c-.3-.5-.9-.9-1.5-1zm-.2 4.7c.9.1 1.6 1 1.4 2-.1.8-.7 1.3-1.4 1.4h-.5c-.9-.1-1.6-1-1.4-2 .1-.9 1-1.6 1.9-1.4zm0-.7c-.9.1-1.8-.5-2-1.4-.1-.9.5-1.8 1.4-2 .9-.1 1.8.5 2 1.4.2 1-.5 1.8-1.4 2zm-1.7-9.7l1.2.2c.4.1.9 0 1.4-.3-.4.3-.6.8-.7 1.2l-.2 1.2c-.5-.4-1.1-.6-1.7-.5.2-.6.2-1.2 0-1.8zM36.1 46.7c-.4-.3-1-.4-1.5-.3v-.1c.1-.4 0-.8-.2-1.1 0-.1-.1-.2-.2-.2-.3-.4-.8-.7-1.3-.7l.1-.1c.2-.3.2-.7.2-1.1 0-.1 0-.2-.1-.3-.2-.5-.6-.9-1-1.1l.1-.1c.3-.3.5-.6.5-1v-.3c0-.6-.3-1-.6-1.4 0 0 .1 0 .1-.1.3-.2.6-.5.8-.8 0-.1.1-.2.1-.3.2-.5.1-1.1-.2-1.5h.1c.4-.1.7-.2 1-.5l.2-.2c.3-.4.4-1 .3-1.5h.1c.4.1.8 0 1.1-.2.1 0 .2-.1.2-.1.4-.3.7-.8.7-1.3l.1.1c.3.2.7.2 1.1.2.1 0 .2 0 .3-.1.5-.2.9-.6 1.1-1l.1.1c.3.3.6.5 1 .5h.3c.6 0 1-.3 1.4-.6 0 0 0 .1.1.1.2.3.5.6.8.8.1 0 .2.1.3.1.5.2 1.1.1 1.5-.2v.1c.1.4.2.7.5 1l.2.2c.4.3 1 .4 1.5.3v.1c-.1.4 0 .8.2 1.1 0 .1.1.2.2.2.3.4.8.7 1.3.7l-.1.1c-.2.3-.2.7-.2 1.1 0 .1 0 .2.1.3.2.5.6.9 1 1.1l-.1.1c-.3.3-.5.6-.5 1v.3c0 .6.3 1 .6 1.4 0 0-.1 0-.1.1-.3.2-.6.5-.8.8 0 .1-.1.2-.1.3-.2.5-.1 1.1.2 1.5h-.1c-.4.1-.7.2-1 .5l-.2.2c-.3.4-.4 1-.3 1.5h-.1c-.4-.1-.8 0-1.1.2-.1 0-.2.1-.2.2-.4.3-.7.8-.7 1.3l-.1-.1c-.3-.2-.7-.2-1.1-.2-.1 0-.2 0-.3.1-.5.2-.9.6-1.1 1l-.1-.1c-.3-.3-.6-.5-1-.5h-.3c-.6 0-1 .3-1.4.6 0 0 0-.1-.1-.1-.2-.3-.5-.6-.8-.8-.1 0-.2-.1-.3-.1-.5-.2-1.1-.1-1.5.2V48c-.1-.4-.2-.7-.5-1 0-.2-.1-.2-.2-.3zm-2.1.7c.4-.6 1.2-.7 1.8-.3.3.2.5.5.5.8.1.3 0 .7-.2.9-.2.3-.5.5-.8.5-.3.1-.7 0-.9-.2-.1 0-.1-.1-.2-.1-.2-.2-.3-.4-.4-.7-.1-.2 0-.6.2-.9zm-2.4-1.6c.1-.3.2-.6.5-.8.6-.4 1.4-.3 1.8.3.2.3.3.6.2.9-.1.3-.2.6-.5.8-.2.1-.4.2-.5.2-.5.1-.9-.1-1.2-.5 0-.1-.1-.1-.1-.2-.2-.2-.2-.4-.2-.7zm-1.3-2.1v-.2c0-.3 0-.5.1-.8.2-.3.4-.5.7-.6.7-.2 1.4.1 1.6.8.1.3.1.7-.1 1s-.4.5-.7.6h-.2c-.6.1-1.3-.2-1.4-.8zm-2.6 3.2c-.4-.8-.1-1.9.8-2.3.8-.4 1.9-.1 2.3.8.4.8.1 1.9-.8 2.3-.2.1-.3.1-.5.2-.7 0-1.5-.3-1.8-1zM26 43.6c.3.5.9.9 1.5 1-.4.5-.6 1.1-.6 1.7l-1.1-.5c-.4-.2-.9-.3-1.4-.2.4-.2.8-.5 1-.9l.6-1.1zm-.3-4.8c.2.6.6 1.1 1.1 1.4-.5.3-.9.8-1.1 1.4l-.8-.8c-.3-.3-.8-.5-1.3-.6h.1c.5-.1.9-.3 1.2-.6l.8-.8zm.3-1.9l-.5-1.1c-.2-.4-.6-.7-1-1 .3.1.6.1.8 0 .2 0 .4-.1.5-.2l1.1-.5c0 .6.2 1.2.6 1.7-.6.2-1.2.6-1.5 1.1zm.3 1c.1-.9 1-1.6 2-1.4.9.1 1.6 1 1.4 2-.1.8-.7 1.3-1.4 1.4h-.5c-1-.2-1.7-1-1.5-2zm3.4 4.1c.1.9-.5 1.8-1.4 2-.9.1-1.8-.5-2-1.4-.1-.9.5-1.8 1.4-2s1.8.5 2 1.4zm1.1-6.9c-.3.5-.7.8-1.3.9-.3.1-.7 0-1-.2-.8-.4-1.2-1.5-.8-2.3.4-.8 1.5-1.2 2.3-.7.9.4 1.2 1.5.8 2.3zm1.4 5.1c0 .3-.1.7-.4.9-.2.2-.4.3-.7.4h-.2c-.7 0-1.3-.6-1.3-1.3V40c0-.3.2-.5.4-.7.2-.2.6-.4.9-.4.8.1 1.3.6 1.3 1.3zm-.3-4.2c.7.2 1 .9.8 1.6-.1.3-.3.6-.6.7-.1.1-.2.1-.4.1h-.6c-.7-.2-1-.9-.8-1.6 0-.1 0-.1.1-.2.1-.2.3-.4.6-.5.2-.2.5-.2.9-.1zm1.7-2.6c.6.4.7 1.2.3 1.8-.2.3-.5.4-.8.5s-.7 0-.9-.2c-.6-.4-.7-1.2-.3-1.8 0-.1.1-.1.1-.2.2-.2.4-.3.7-.4.3 0 .6.1.9.3zm2.2-.1c-.2.1-.3.2-.5.2h-.4c-.3-.1-.6-.2-.8-.5-.4-.6-.3-1.4.3-1.8.1 0 .1-.1.2-.1.1-.1.4-.1.6-.1.3.1.6.2.8.5.5.6.4 1.4-.2 1.8zm-.1-3.1c-.2.1-.3.1-.5.2-.7.1-1.5-.2-1.8-.9-.4-.8-.1-1.9.8-2.3.8-.4 1.9-.1 2.3.7.4.8.1 1.8-.8 2.3zm1.7-.5h.2c.3 0 .5 0 .8.1.3.2.5.4.6.7.2.7-.1 1.4-.8 1.6H38c-.3 0-.5 0-.8-.1-.3-.2-.5-.4-.6-.7-.2-.7.1-1.4.8-1.6zm1.7-.6c-.9.1-1.8-.5-2-1.4-.1-.9.5-1.8 1.4-2 .9-.1 1.8.5 2 1.4s-.5 1.8-1.4 2zm2.7.4c.2.2.4.6.4.9 0 .6-.5 1.2-1.1 1.2h-.2c-.3 0-.7-.1-.9-.4-.2-.2-.4-.6-.4-.9 0-.7.6-1.3 1.3-1.3h.2c.2.2.5.3.7.5zm3.2.8c.2.3.2.6.1 1-.2.5-.6.8-1 .9h-.6c-.3-.1-.6-.3-.7-.6-.2-.3-.2-.6-.1-1 .2-.7.9-1 1.6-.8.1 0 .1 0 .2.1.2 0 .4.1.5.4zm-.4-2.7c-.1.7-.7 1.3-1.4 1.4h-.5c-.9-.1-1.6-1-1.4-2 .1-.9 1-1.6 2-1.4.8.2 1.4 1.1 1.3 2zM29.5 32c-.6-.1-1.2.1-1.7.5l-.2-1.2c-.1-.4-.3-.9-.7-1.2.4.2.9.3 1.4.3l1.2-.2c-.3.6-.3 1.2 0 1.8zm-.1 18.3l-1.2-.2c-.4-.1-.9 0-1.4.3.4-.3.6-.8.7-1.2l.2-1.2c.5.4 1.1.6 1.7.5-.2.5-.2 1.2 0 1.8zm22.8-1.8h.6c.4-.1.8-.2 1.1-.5l.2 1.2c.1.4.3.9.7 1.2-.4-.2-.9-.3-1.4-.3l-1.2.2c.3-.6.3-1.3 0-1.8zm8.9-13c.2-.4.6-.6 1.1-.7h.1c.5-.1 1.1.1 1.4.4l.9.9c.1.1.2.3.3.5 0 .2 0 .4-.1.5l-.6.9c-.2.4-.7.7-1.2.8s-1.1-.1-1.4-.4l-.9-.9c-.3-.3-.3-.7-.2-1 .1.1.6-1 .6-1zm-.6-.3l-.6 1.1c-.2.3-.2.7-.2 1s.2.6.5.9l.9.9.1.1-2.5.4c-.5.1-1.1-.1-1.4-.4l-.9-.9c-.3-.3-.3-.7-.2-1l.6-1.1c.2-.4.7-.7 1.2-.8l2.5-.4c.1.1 0 .1 0 .2zm-2.6-3.6c.1.3.4.5.7.7l1.1.6c.1 0 .1.1.2.1l-2.2 1c-.2.1-.4.2-.6.2-.3 0-.6 0-.9-.1l-1.1-.5c-.4-.2-.5-.5-.5-.9l.2-1.2c.1-.4.4-.9.9-1.1l2.2-1.1v.2l-.2 1.2c0 .2.1.6.2.9zm-11.6-6.4l.5 1.1c-.6 0-1.2.2-1.7.6-.1-.6-.5-1.1-1-1.5l1.1-.5c.4-.2.7-.6.9-1 0 .4 0 .9.2 1.3zm-10.8-1.4c.2.4.5.8.9 1l1.1.6c-.5.3-.9.9-1 1.5-.5-.4-1.1-.6-1.7-.6l.5-1.1c.3-.4.3-.9.2-1.4zm-11.6 6.8l-.2-1.2v-.2l2.2 1.1c.5.3.8.7.9 1.1l.2 1.2c.1.4-.1.7-.5.9l-1.1.5c-.1.1-.2.1-.4.1-.3.1-.7 0-1.1-.2l-2.2-1.1c.1 0 .1 0 .2-.1l1.1-.5c.3-.2.6-.4.7-.7.2-.2.3-.6.2-.9zm-.1 18.3c-.1-.3-.4-.5-.7-.7l-1.1-.5c-.1 0-.1 0-.2-.1l2.2-1.1c.5-.2 1-.3 1.4-.1l1.1.5c.4.2.5.5.5.9l-.2 1.2c-.1.4-.4.9-.9 1.1l-2.2 1.1V51l.2-1.2c.1-.3.1-.6-.1-.9zm11.6 6.3l-.5-1.1h.5c.5-.1.9-.3 1.2-.6.1.6.5 1.1 1 1.5l-1.1.5c-.4.2-.7.6-.9 1 0-.4 0-.9-.2-1.3zm10.8 1.4c-.2-.4-.5-.8-.9-1l-1.1-.6c.5-.3.9-.9 1-1.5.5.4 1.1.6 1.7.6l-.5 1.1c-.2.4-.3.9-.2 1.4zm11.6-6.7l.2 1.2v.2l-2.2-1.1c-.5-.2-.8-.7-.9-1.1l-.2-1.2c-.1-.4.1-.7.5-.9l1.1-.5c.4-.2.9-.2 1.4.1l2.2 1.1c-.1 0-.1 0-.2.1l-1.1.5c-.3.2-.6.4-.7.7-.1.2-.2.5-.1.9zm1.4-25.2l-.1-.9c1.3.7 2.9.7 4.3.1-1 1.1-1.5 2.7-1.2 4.1l-.8-.4c-.6-.3-1.4-.3-2.1.1 0 0-.1 0-.1.1l-3.7 1.9h-.1.1l3-3c.5-.6.8-1.4.7-2zm-5.7-4.9l-.4-.8c.5.1 1 .1 1.6 0 .9-.1 1.8-.6 2.6-1.2-.6 1.4-.6 3 .1 4.3l-.9-.1c-.7-.1-1.4.2-2 .7l-.1.1-2.9 2.9-.1.1v-.1l2-3.8c.3-.7.4-1.5.1-2.1zm-2.6-1.9l-.9.1c-.7.1-1.3.6-1.7 1.3 0 0 0 .1-.1.1l-1.9 3.7.7-4.2c.1-.8-.1-1.5-.6-2l-.6-.6h.1c1.4-.2 2.7-1.1 3.4-2.4 0 1.4.5 3 1.6 4zm-18.7-4.1c.8 1.3 2.1 2.3 3.6 2.4l-.6.6c-.5.5-.7 1.2-.6 2v.1l.6 4.1-1.9-3.8c-.4-.7-1-1.2-1.6-1.3l-.9-.1c1.1-.9 1.6-2.5 1.4-4zm-7.7 4c1.2 1 2.7 1.5 4.1 1.2l-.4.8c-.3.6-.3 1.4.1 2.1 0 0 0 .1.1.1l1.9 3.7-3-3c-.5-.6-1.3-.8-2-.7l-.9.1c.7-1.3.7-2.9.1-4.3zm-1.3 8.8l.1.1 2.9 2.9-3.8-2c-.7-.4-1.5-.4-2.1-.1l-.8.5c.3-1.5-.2-3-1.2-4.1 1.4.6 3 .6 4.3-.1l-.1.9c-.1.6.2 1.4.7 1.9zm-15 11c-.5-.7-.5-1.5-.3-2.6s.4-1.9 1.1-2.4l.1-.1c.9-.7 2.1-.9 3.3-.7 2.3.4 3.9 2.4 3.6 4.5-.3 1.7-1.7 2.9-3.4 3.2-.5.1-.9.1-1.4 0-1.2-.2-2.2-.8-2.9-1.7l-.1-.2zm14.3 18.2l.1.9c-1.3-.7-2.9-.7-4.3-.1 1-1.1 1.5-2.7 1.2-4.1l.8.4c.4.2.8.3 1.3.2.3 0 .5-.1.8-.3 0 0 .1 0 .1-.1l3.7-1.9-3 3c-.5.6-.8 1.3-.7 2zm5.7 4.9l.4.8c-1.5-.3-3 .2-4.1 1.2.6-1.4.6-3-.1-4.3l.9.1h.6c.5-.1 1-.3 1.4-.7l.1-.1 2.9-2.9.1-.1v.1l-2 3.8c-.4.7-.5 1.5-.2 2.1zm2.6 1.9l.9-.1c.7-.1 1.3-.6 1.7-1.3 0 0 0-.1.1-.1l1.9-3.7v-.1.1l-.7 4.2c-.1.8.1 1.5.6 2l.6.6c-1.5.2-2.8 1.1-3.6 2.4.1-1.5-.4-3-1.5-4zm18.7 4c-.8-1.3-2.1-2.3-3.6-2.4l.6-.6c.5-.5.7-1.2.6-2v-.1l-.6-4.1v-.1.1l1.9 3.8c.4.7 1 1.2 1.6 1.3l.9.2c-1.1.9-1.6 2.4-1.4 3.9zm7.7-3.9c-1.2-1-2.7-1.5-4.1-1.2l.4-.8c.3-.6.3-1.4-.1-2.1 0 0 0-.1-.1-.1l-1.9-3.7v-.1.1l3 3c.5.6 1.3.8 2 .7l.9-.1c-.7 1.3-.7 2.9-.1 4.3zm1.3-8.9l-3-3-.1-.1h.1l3.8 2c.7.4 1.5.4 2.1.1l.8-.4c-.3 1.5.2 3 1.2 4.1-1.4-.6-3-.6-4.3.1l.1-.9c.1-.6-.2-1.3-.7-1.9zm13.3-25.7l.1-.2c.4-1.1 1.2-1.9 2.3-2.3 2.5-.8 3.6 1.8 3.8 2.6.3 1 .4 1.9.1 2.7-.3.8-.8 1.4-1.7 1.6-.2.1-.4.1-.6.1-.9.2-1.9-.1-2.7-.6l-.1-.1c-1-.7-2.3-1.1-3.6-.9 1.2-.7 2-1.7 2.4-2.9zm8.8 11c-.3-2.1-1.6-3.3-3.5-3.3-.9 0-1.7.3-2.4.7 0-.6 0-1.1-.1-1.6s-.2-1.1-.4-1.6c.8.2 1.7.2 2.5-.1 1.1-.4 1.9-1.1 2.2-2.1.3-.9.2-2-.1-3.2-.8-2.6-2.7-3.8-4.8-3.1-.8.3-1.5.8-2.1 1.4-.1-.5-.4-1.1-.6-1.5-.2-.5-.5-1-.9-1.4.9 0 1.7-.3 2.4-.8.9-.7 1.4-1.6 1.4-2.7 0-1-.4-2-1.1-3-1.6-2.2-3.7-2.8-5.5-1.4-.7.5-1.2 1.2-1.5 2-.3-.5-.7-.9-1.1-1.3s-.8-.7-1.2-1c.8-.3 1.5-.8 2-1.5.7-.9.9-2 .5-3-.3-.9-1-1.8-2-2.5-2.2-1.6-4.4-1.5-5.7.3-.5.7-.8 1.5-.8 2.4-.4-.4-.9-.6-1.4-.9-.5-.2-1-.5-1.5-.6.7-.5 1.2-1.3 1.4-2.1.4-1.1.2-2.2-.4-3-.6-.8-1.5-1.4-2.7-1.8-2.6-.8-4.6 0-5.3 2.1-.3.8-.3 1.7-.1 2.5-.5-.2-1.1-.3-1.6-.4s-1.1-.2-1.6-.1c.4-.7.7-1.5.7-2.4 0-1.2-.5-2.1-1.4-2.8-.8-.6-1.8-.8-3.1-.8-.4 0-.7 0-1.1.1h-.1c-2.1.3-3.3 1.6-3.3 3.5 0 .9.3 1.7.7 2.4-.6 0-1.1 0-1.6.1-.4.1-1 .2-1.5.4.2-.8.2-1.7-.1-2.5-.4-1.1-1.1-1.9-2.2-2.2-.9-.3-2-.2-3.2.1-2.6.8-3.8 2.7-3.1 4.8.3.8.8 1.5 1.4 2.1-.5.1-1.1.4-1.5.6-.5.2-1 .5-1.4.9 0-.8-.3-1.7-.8-2.4-.6-1-1.5-1.4-2.6-1.4-1 0-2 .4-3 1.1-2.2 1.6-2.8 3.7-1.4 5.5.5.7 1.2 1.2 2 1.5-.5.3-.9.7-1.3 1-.4.4-.7.8-1 1.2-.3-.8-.8-1.5-1.5-2-.9-.7-2-.9-3-.5-.9.3-1.8 1-2.5 2-1.6 2.2-1.5 4.4.3 5.7.7.5 1.5.8 2.4.8-.4.4-.6.9-.9 1.4-.2.5-.5 1-.6 1.5-.5-.7-1.3-1.2-2.1-1.4-1.1-.4-2.2-.2-3.1.4-.8.6-1.4 1.5-1.8 2.6-.8 2.6 0 4.6 2.1 5.3.8.3 1.7.3 2.5.1-.2.5-.3 1.1-.4 1.6 0 .6-.1 1.2-.1 1.7-.7-.5-1.6-.7-2.4-.7-1.2 0-2.1.5-2.8 1.4-.5.7-.8 1.8-.8 3 0 2.7 1.4 4.4 3.6 4.4.9 0 1.7-.3 2.4-.7 0 .6 0 1.1.1 1.6s.2 1.1.4 1.6c-.8-.2-1.7-.2-2.5.1-1.1.4-1.9 1.1-2.2 2.2-.3.9-.2 2 .1 3.2.8 2.6 2.7 3.8 4.8 3.1.8-.3 1.5-.8 2.1-1.4.1.5.4 1.1.6 1.5.2.5.5 1 .9 1.4-.9 0-1.7.3-2.4.8-.9.7-1.4 1.6-1.4 2.7 0 1 .4 2 1.1 3 1.6 2.2 3.7 2.8 5.5 1.4.7-.5 1.2-1.2 1.5-2 .3.5.7.9 1 1.3.4.4.8.7 1.3 1-.8.3-1.5.8-2 1.5-.7.9-.9 2-.5 3 .3.9 1 1.8 2 2.5 2.2 1.6 4.4 1.5 5.7-.3.5-.7.8-1.5.8-2.4.4.4.9.6 1.4.9.5.2 1 .5 1.5.6-.7.5-1.2 1.3-1.4 2.1-.4 1.1-.2 2.2.4 3s1.5 1.4 2.7 1.8c2.6.8 4.6 0 5.3-2.1.3-.8.3-1.7.1-2.5.5.2 1.1.3 1.6.4s1.1.1 1.6.1c-.5.7-.7 1.5-.7 2.4 0 1.2.5 2.1 1.4 2.8.8.6 1.8.9 3.1.8 2.7 0 4.4-1.4 4.4-3.6 0-.9-.3-1.7-.7-2.4.6 0 1.1 0 1.6-.1s1.1-.2 1.6-.4c-.2.8-.2 1.7.1 2.5.4 1.1 1.1 1.9 2.2 2.2.9.3 2 .2 3.2-.1 2.6-.8 3.8-2.7 3.1-4.8-.3-.8-.8-1.5-1.4-2.1.5-.1 1.1-.4 1.5-.6.5-.2 1-.5 1.4-.9 0 .8.3 1.7.8 2.4.7.9 1.6 1.4 2.7 1.4 1 0 2-.4 3-1.1 2.2-1.6 2.8-3.7 1.4-5.5-.5-.7-1.2-1.2-2-1.5.5-.3.9-.7 1.3-1 .4-.4.7-.8 1-1.2.3.8.8 1.5 1.5 2 .9.7 2 .9 3 .5.9-.3 1.8-1 2.5-2 1.6-2.2 1.5-4.4-.3-5.7-.7-.5-1.5-.8-2.4-.8.4-.4.6-.9.9-1.4.2-.5.5-1 .6-1.5.5.7 1.3 1.2 2.1 1.4 1.1.4 2.2.2 3.1-.4.8-.6 1.4-1.5 1.8-2.6.8-2.6 0-4.6-2.1-5.3-.8-.3-1.7-.3-2.5-.1.2-.5.3-1.1.4-1.6s.2-1.1.1-1.6c.7.5 1.6.7 2.4.7 1.2 0 2.1-.5 2.8-1.4.6-.8.9-1.8.9-3.1-.2-.4-.2-.8-.3-1.2z" mask="url(#d)"></path>
    <path class="st0" d="M90.3 6.6h10.3v2.2h-7.7v4h7l.3 2.1h-7.3v4.3h7.9v2.1H90.3zM108.1 15.6l-4.1 5.7h-2.8l5.4-7.6-5-6.9 2.9-.3 3.8 5.4 3.6-5.3h2.8l-4.9 7.1 5.5 7.5-2.8.3zM128.1 11.5c0 2.9-2 4.9-5.7 4.9h-3.7v5h-2.6V6.6h6.3c3.7 0 5.7 2 5.7 4.9m-2.7 0c0-1.8-1.3-2.7-3.1-2.7h-3.6v5.5h3.6c1.8-.1 3.1-1 3.1-2.8M128.8 14c0-4.2 2.8-7.6 7.8-7.6s7.8 3.4 7.8 7.6c0 4.2-2.8 7.6-7.8 7.6s-7.8-3.4-7.8-7.6m2.6 0c0 3.2 1.9 5.4 5.2 5.4 3.3 0 5.2-2.2 5.2-5.4s-1.9-5.4-5.2-5.4c-3.3 0-5.2 2.2-5.2 5.4M90.3 41.2h5c4.7 0 7.5 3 7.5 7.4 0 4.3-2.8 7.4-7.5 7.4h-5V41.2zm11.6 7.3c0-4-2.6-6.5-6.7-6.5h-4.1v13.1h4.1c4.1 0 6.7-2.5 6.7-6.6zM105.9 41.1v9.4c0 2.7 1.8 4.8 5.2 4.8 3.4 0 5.2-2.1 5.2-4.8v-9.2l.9-.2v9.4c0 3-1.9 5.6-6 5.6-4.3 0-6-2.9-6-5.6v-9.2l.7-.2zM130.8 45c0 1.7-.9 2.9-2.3 3.4 1.8.3 2.8 1.6 2.8 3.6 0 2.7-1.7 4-4.9 4h-6.2V41.2h5.5c3.2 0 5.1 1.1 5.1 3.8zm-.9 0c0-2.7-2.1-3-4.4-3h-4.4v5.9h4.4c2.3 0 4.4-.2 4.4-2.9zm-8.8 10.1h5.1c2.4 0 4.2-.4 4.2-3.1s-1.9-3.2-4.2-3.2h-5.1v6.3zM143.3 52h-8.6l-1.7 3.9h-.9l6.4-14.7.9-.2 6.5 14.8-.9.2-1.7-4zm-.4-.8l-4-9-3.9 9h7.9zM147.8 55.9V41.3l.9-.2v14.8z"></path>
    <path class="st0" d="M91.1 58.3v9.4c0 2.7 1.8 4.8 5.2 4.8 3.4 0 5.2-2.1 5.2-4.8v-9.2l.9-.2v9.4c0 3-1.9 5.6-6 5.6-4.3 0-6-2.9-6-5.6v-9.2l.7-.2zM114.8 69.3h-8.6l-1.7 3.9h-.9l6.4-14.7.9-.2 6.5 14.8-.9.2-1.7-4zm-.3-.8l-4-9-3.9 9h7.9zM119.4 58.5h9.9v.8h-9.1v5.9h8.4l.3.8h-8.7v6.3h9.3v.9h-10.1z"></path>
    <path class="st0" d="M95.5 23.7c2.9 0 5.4 1.3 5.4 4.2 0 4.7-7.8 5.5-7.8 8.6h7.7l.3 2.1H90.3v-1.3c0-5.6 8-5.7 8-9.2 0-1.7-1.4-2.3-3-2.3-1.5 0-2.8.6-4.2 1.4l-.4-2.1c1.5-.8 3.1-1.4 4.8-1.4M102 31.3c0-4.2 2.1-7.6 6.5-7.6s6.5 3.4 6.5 7.6c0 4.2-2.2 7.6-6.5 7.6-4.4-.1-6.5-3.4-6.5-7.6m2.6 0c0 3.3 1.2 5.5 3.9 5.5s3.9-2.2 3.9-5.5-1.2-5.5-3.9-5.5-3.9 2.2-3.9 5.5"></path>
    <path class="st0" d="M121.1 23.7c2.9 0 5.4 1.3 5.4 4.2 0 4.7-7.8 5.5-7.8 8.6h7.7l.3 2.1h-10.9v-1.3c0-5.6 8-5.7 8-9.2 0-1.7-1.4-2.3-3-2.3-1.5 0-2.8.6-4.2 1.4l-.4-2.1c1.6-.8 3.1-1.4 4.9-1.4M127.6 31.3c0-4.2 2.1-7.6 6.5-7.6s6.5 3.4 6.5 7.6c0 4.2-2.2 7.6-6.5 7.6-4.4-.1-6.5-3.4-6.5-7.6m2.6 0c0 3.3 1.2 5.5 3.9 5.5s3.9-2.2 3.9-5.5-1.2-5.5-3.9-5.5c-2.7-.1-3.9 2.2-3.9 5.5"></path>
  </svg>