<svg width="2000" height="437" viewBox="0 0 2000 437" fill="none" xmlns="http://www.w3.org/2000/svg">
<g id="teliportme-logo">
<rect width="1779" height="388" transform="scale(1.12423)" fill="white"/>
<g id="Group">
<g id="parts">
<path id="center" fill-rule="evenodd" clip-rule="evenodd" d="M239.62 296.867C283.831 296.867 319.671 261.027 319.671 216.816C319.671 172.605 283.831 136.765 239.62 136.765C195.409 136.765 159.569 172.605 159.569 216.816C159.569 261.027 195.409 296.867 239.62 296.867Z" fill="#1A1A1A"/>
<path id="top" fill-rule="evenodd" clip-rule="evenodd" d="M182.716 75.5214C182.716 99.2249 208.193 118.44 239.62 118.44C271.047 118.44 298.726 101.575 298.726 75.5214C298.726 49.4684 271.047 32.6026 239.62 32.6026C208.193 32.6026 182.716 51.818 182.716 75.5214Z" fill="#1A1A1A"/>
<path id="bottom" fill-rule="evenodd" clip-rule="evenodd" d="M182.716 356.182C182.716 379.885 208.193 399.101 239.62 399.101C271.047 399.101 298.726 382.235 298.726 356.182C298.726 330.129 271.047 313.263 239.62 313.263C208.193 313.263 182.716 332.478 182.716 356.182Z" fill="#1A1A1A"/>
<path id="left" fill-rule="evenodd" clip-rule="evenodd" d="M96.8788 275.649C118.718 275.649 136.422 252.68 136.422 215.852C136.422 179.023 118.718 156.055 96.8788 156.055C75.0397 156.055 57.3356 179.832 57.3356 215.852C57.3356 251.871 75.0397 275.649 96.8788 275.649Z" fill="#1A1A1A"/>
<path id="right" fill-rule="evenodd" clip-rule="evenodd" d="M384.29 275.649C406.13 275.649 423.834 252.68 423.834 215.852C423.834 179.023 406.13 156.055 384.29 156.055C362.451 156.055 344.747 179.832 344.747 215.852C344.747 251.871 362.451 275.649 384.29 275.649Z" fill="#1A1A1A"/>
<path id="top left" fill-rule="evenodd" clip-rule="evenodd" d="M142.556 118.604C124.839 136.321 105.362 138.632 93.3222 137.199C88.717 136.651 77.9628 133.281 77.9628 133.281C77.9628 133.281 86.2424 114.109 110.346 86.3939C128.776 65.203 155.539 53.2805 155.539 53.2805C155.539 53.2805 158.965 59.2986 159.199 69.5794C159.526 83.9099 160.273 100.887 142.556 118.604Z" fill="#1A1A1A"/>
<path id="top right" fill-rule="evenodd" clip-rule="evenodd" d="M337.606 118.604C355.323 136.321 374.8 138.632 386.84 137.199C391.445 136.651 402.199 133.281 402.199 133.281C402.199 133.281 393.92 114.109 369.816 86.3939C351.386 65.203 324.623 53.2805 324.623 53.2805C324.623 53.2805 321.197 59.2986 320.962 69.5794C320.636 83.9099 319.889 100.887 337.606 118.604Z" fill="#1A1A1A"/>
<path id="bottom right" fill-rule="evenodd" clip-rule="evenodd" d="M141.89 311.426C124.173 293.709 104.696 291.398 92.6559 292.831C88.0507 293.379 77.2965 296.749 77.2965 296.749C77.2965 296.749 85.5761 315.921 109.68 343.636C128.11 364.827 154.873 376.749 154.873 376.749C154.873 376.749 158.299 370.731 158.533 360.45C158.86 346.12 159.607 329.143 141.89 311.426Z" fill="#1A1A1A"/>
<path id="bottom left" fill-rule="evenodd" clip-rule="evenodd" d="M339.535 311.426C357.252 293.709 376.729 291.398 388.769 292.831C393.374 293.379 404.128 296.749 404.128 296.749C404.128 296.749 395.849 315.921 371.745 343.636C353.315 364.827 326.552 376.749 326.552 376.749C326.552 376.749 323.126 370.731 322.891 360.45C322.565 346.12 321.818 329.143 339.535 311.426Z" fill="#1A1A1A"/>
</g>
</g>
<path id="TELIPORTME" d="M587.27 306.914V169.866H633.829V136.073H499.534V169.866H545.968V306.914H587.27ZM766.872 274.123H693.029V236.075H762.241V205.786H693.029V168.865H766.872V136.073H652.102V306.914H766.872V274.123ZM905.422 272.37H836.961V136.073H795.533V306.914H905.422V272.37ZM967.876 306.914V136.073H926.449V306.914H967.876ZM1001.04 136.073V306.914H1042.35V254.097H1072.76C1112.18 254.097 1133.08 228.19 1133.08 195.398C1133.08 163.107 1112.56 136.073 1073.26 136.073H1001.04ZM1042.22 167.863H1063.62C1080.52 167.863 1091.16 177.626 1091.16 195.398C1091.16 215.423 1078.77 222.933 1058.87 222.933H1042.22V167.863ZM1190.03 211.544C1190.03 182.006 1203.8 166.612 1224.07 166.612C1244.23 166.612 1257.99 182.006 1257.99 211.544V232.069C1257.99 261.732 1244.23 276.375 1224.07 276.375C1203.8 276.375 1190.03 261.732 1190.03 232.069V211.544ZM1147.73 231.944C1147.73 280.005 1175.64 310.043 1223.95 310.043C1272.39 310.043 1300.3 280.005 1300.3 231.944V212.044C1300.3 163.733 1272.51 133.069 1224.2 133.069C1175.89 133.069 1147.73 163.483 1147.73 212.044V231.944ZM1399.05 136.073H1326.7V306.914H1367.38V245.962H1390.79L1419.7 306.914H1465.5L1431.46 240.205C1443.1 235.449 1462 220.179 1462 192.019C1462 159.853 1441.22 136.073 1399.05 136.073ZM1367.38 216.675V167.112H1392.91C1407.68 167.112 1419.32 175.498 1419.32 192.394C1419.32 208.54 1408.56 216.675 1392.54 216.675H1367.38ZM1560.75 306.914V169.866H1607.31V136.073H1473.01V169.866H1519.45V306.914H1560.75ZM1662.5 306.914V201.155H1664.38L1700.55 281.131H1724.83L1760.88 201.155H1762.63V306.914H1799.8V136.073H1757.5L1713.57 232.57H1712.32L1668.51 136.073H1625.71V306.914H1662.5ZM1948.11 274.123H1874.27V236.075H1943.48V205.786H1874.27V168.865H1948.11V136.073H1833.34V306.914H1948.11V274.123Z" fill="#1A1A1A"/>
</g>
</svg>
